<svg width="19" height="19" viewBox="0 0 19 19" fill="none" xmlns="http://www.w3.org/2000/svg">
<g clip-path="url(#clip0_4011_5659)">
<path d="M15.8333 3.16797H3.16659C2.29575 3.16797 1.58325 3.88047 1.58325 4.7513V14.2513C1.58325 15.1221 2.29575 15.8346 3.16659 15.8346H15.8333C16.7041 15.8346 17.4166 15.1221 17.4166 14.2513V4.7513C17.4166 3.88047 16.7041 3.16797 15.8333 3.16797ZM15.8333 14.2513H3.16659V4.7513H15.8333V14.2513ZM4.74992 7.91797H6.33325V9.5013H4.74992V7.91797ZM4.74992 11.0846H11.0833V12.668H4.74992V11.0846ZM12.6666 11.0846H14.2499V12.668H12.6666V11.0846ZM7.91658 7.91797H14.2499V9.5013H7.91658V7.91797Z" fill="#A9CA4B"/>
</g>
<defs>
<clipPath id="clip0_4011_5659">
<rect width="19" height="19" fill="white"/>
</clipPath>
</defs>
</svg>
