<svg width="19" height="19" viewBox="0 0 19 19" fill="none" xmlns="http://www.w3.org/2000/svg">
<g clip-path="url(#clip0_4011_7113)">
<path d="M12.524 5.71583L11.7324 6.0325C11.5661 5.90583 11.3919 5.80292 11.2019 5.72375L11.0832 4.88458C11.0674 4.80542 11.004 4.75 10.9249 4.75H9.65819C9.57902 4.75 9.51569 4.80542 9.50778 4.88458L9.38902 5.72375C9.19902 5.80292 9.01694 5.90583 8.85861 6.0325L8.06694 5.71583C7.99569 5.69208 7.90861 5.71583 7.87694 5.78708L7.24361 6.87958C7.20402 6.95083 7.21986 7.03792 7.28319 7.08542L7.95611 7.60792C7.93236 7.70292 7.91653 7.81375 7.91653 7.91667C7.91653 8.01958 7.92444 8.1225 7.94027 8.22542L7.27527 8.74792C7.21194 8.79542 7.19611 8.8825 7.23569 8.94583L7.86902 10.0462C7.90861 10.1175 7.98777 10.1412 8.06694 10.1175L8.85069 9.80083C9.01694 9.9275 9.19111 10.0304 9.38902 10.1096L9.49986 10.9488C9.51569 11.0279 9.57902 11.0833 9.65819 11.0833H10.9249C11.004 11.0833 11.0674 11.0279 11.0832 10.9488L11.2019 10.1096C11.3919 10.0304 11.574 9.9275 11.7324 9.80083L12.5161 10.1175C12.5874 10.1492 12.6744 10.1175 12.7061 10.0462L13.3394 8.94583C13.379 8.87458 13.3632 8.79542 13.2999 8.74792L12.6428 8.22542C12.6586 8.1225 12.6665 8.01958 12.6665 7.91667C12.6665 7.80583 12.6586 7.70292 12.6428 7.60792L13.3157 7.08542C13.379 7.03792 13.3949 6.95083 13.3553 6.87958L12.7219 5.78708C12.6824 5.71583 12.5953 5.69208 12.524 5.71583ZM10.2915 9.04875C9.66611 9.04875 9.15944 8.54208 9.15944 7.91667C9.15944 7.29125 9.66611 6.78458 10.2915 6.78458C10.9169 6.78458 11.4236 7.29125 11.4236 7.91667C11.4236 8.54208 10.9169 9.04875 10.2915 9.04875Z" fill="#A9CA4B"/>
<path d="M15.7858 7.1725C15.4454 4.58375 13.2287 2.53333 10.6162 2.38292C10.5054 2.375 10.4025 2.375 10.2916 2.375C7.49704 2.375 5.20121 4.44125 4.81329 7.125L3.28538 9.88C2.96079 10.4025 3.34079 11.0833 3.95829 11.0833H4.74996V12.6667C4.74996 13.5375 5.46246 14.25 6.33329 14.25H7.12496V16.625H12.6666V12.92C14.7408 11.9304 16.1104 9.69 15.7858 7.1725ZM11.7879 11.5821L11.0833 11.9146V15.0417H8.70829V12.6667H6.33329V9.5H5.30413L6.35704 7.65542C6.49954 5.58917 8.19371 3.95833 10.2916 3.95833C12.4766 3.95833 14.25 5.73167 14.25 7.91667C14.25 9.57125 13.2287 10.9883 11.7879 11.5821Z" fill="#A9CA4B"/>
</g>
<defs>
<clipPath id="clip0_4011_7113">
<rect width="19" height="19" fill="white"/>
</clipPath>
</defs>
</svg>
