<svg width="19" height="19" viewBox="0 0 19 19" fill="none" xmlns="http://www.w3.org/2000/svg">
<g clip-path="url(#clip0_4011_6641)">
<path d="M11.8749 3.16536V8.70703H4.09284L3.16659 9.63328V3.16536H11.8749ZM12.6666 1.58203H2.37492C1.9395 1.58203 1.58325 1.93828 1.58325 2.3737V13.457L4.74992 10.2904H12.6666C13.102 10.2904 13.4583 9.93411 13.4583 9.4987V2.3737C13.4583 1.93828 13.102 1.58203 12.6666 1.58203ZM16.6249 4.7487H15.0416V11.8737H4.74992V13.457C4.74992 13.8924 5.10617 14.2487 5.54159 14.2487H14.2499L17.4166 17.4154V5.54036C17.4166 5.10495 17.0603 4.7487 16.6249 4.7487Z" fill="#A9CA4B"/>
</g>
<defs>
<clipPath id="clip0_4011_6641">
<rect width="19" height="19" fill="white"/>
</clipPath>
</defs>
</svg>
