<svg width="19" height="19" viewBox="0 0 19 19" fill="none" xmlns="http://www.w3.org/2000/svg">
<g clip-path="url(#clip0_4011_7097)">
<path d="M10.1888 11.9291L8.178 9.94203L8.20175 9.91828C9.57925 8.38245 10.5609 6.61703 11.1388 4.7487H13.4584V3.16536H7.91675V1.58203H6.33341V3.16536H0.791748V4.74078H9.63466C9.10425 6.2687 8.26508 7.71745 7.12508 8.98411C6.38883 8.1687 5.77925 7.27411 5.29633 6.33203H3.713C4.29091 7.62245 5.08258 8.84161 6.07216 9.94203L2.04258 13.9162L3.16675 15.0404L7.12508 11.082L9.58716 13.5441L10.1888 11.9291ZM14.6459 7.91536H13.0626L9.50008 17.4154H11.0834L11.9701 15.0404H15.7305L16.6251 17.4154H18.2084L14.6459 7.91536ZM12.5717 13.457L13.8542 10.0291L15.1367 13.457H12.5717V13.457Z" fill="#A9CA4B"/>
</g>
<defs>
<clipPath id="clip0_4011_7097">
<rect width="19" height="19" fill="white"/>
</clipPath>
</defs>
</svg>
