<svg width="19" height="19" viewBox="0 0 19 19" fill="none" xmlns="http://www.w3.org/2000/svg">
<g clip-path="url(#clip0_4011_7102)">
<path d="M11.8749 1.58203C9.7295 1.58203 7.877 2.8012 6.95075 4.57453C5.93742 5.10495 5.09825 5.9362 4.57575 6.94953C2.80242 7.87578 1.58325 9.72828 1.58325 11.8737C1.58325 14.9374 4.06117 17.4154 7.12492 17.4154C9.27033 17.4154 11.1228 16.1962 12.0491 14.4229C13.0624 13.8924 13.9016 13.0612 14.4241 12.0479C16.1974 11.1216 17.4166 9.26911 17.4166 7.1237C17.4166 4.05995 14.9387 1.58203 11.8749 1.58203ZM7.12492 15.832C4.93992 15.832 3.16659 14.0587 3.16659 11.8737C3.16659 10.987 3.4595 10.1637 3.95825 9.4987C3.95825 12.5624 6.43617 15.0404 9.49992 15.0404C8.83492 15.5391 8.01158 15.832 7.12492 15.832ZM9.49992 13.457C7.31492 13.457 5.54159 11.6837 5.54159 9.4987C5.54159 8.61203 5.8345 7.7887 6.33325 7.1237C6.33325 10.1795 8.81117 12.6574 11.8749 12.6654C11.2099 13.1641 10.3866 13.457 9.49992 13.457ZM13.2208 10.8445C12.8012 10.9949 12.3499 11.082 11.8749 11.082C9.68992 11.082 7.91658 9.3087 7.91658 7.1237C7.91658 6.6487 8.00367 6.19745 8.15409 5.77786C8.57367 5.62745 9.02492 5.54036 9.49992 5.54036C11.6849 5.54036 13.4583 7.3137 13.4583 9.4987C13.4583 9.9737 13.3712 10.4249 13.2208 10.8445ZM15.0416 9.4987C15.0416 6.44286 12.5637 3.96495 9.49992 3.95703C10.1649 3.45828 10.9803 3.16536 11.8749 3.16536C14.0599 3.16536 15.8333 4.9387 15.8333 7.1237C15.8333 8.01036 15.5403 8.8337 15.0416 9.4987Z" fill="#A9CA4B"/>
</g>
<defs>
<clipPath id="clip0_4011_7102">
<rect width="19" height="19" fill="white"/>
</clipPath>
</defs>
</svg>
