<svg width="19" height="19" viewBox="0 0 19 19" fill="none" xmlns="http://www.w3.org/2000/svg">
<g clip-path="url(#clip0_4011_4989)">
<path d="M2.375 7.12651V11.8765H5.54167L9.5 15.8348V3.16818L5.54167 7.12651H2.375ZM7.91667 6.99193V12.0111L6.19875 10.2932H3.95833V8.70984H6.19875L7.91667 6.99193ZM13.0625 9.50151C13.0625 8.10026 12.255 6.89693 11.0833 6.31109V12.684C12.255 12.1061 13.0625 10.9028 13.0625 9.50151ZM11.0833 2.55859V4.18943C13.3713 4.87026 15.0417 6.99193 15.0417 9.50151C15.0417 12.0111 13.3713 14.1328 11.0833 14.8136V16.4444C14.2579 15.724 16.625 12.8898 16.625 9.50151C16.625 6.11318 14.2579 3.27901 11.0833 2.55859V2.55859Z" fill="#A9CA4B"/>
</g>
<defs>
<clipPath id="clip0_4011_4989">
<rect width="19" height="19" fill="white"/>
</clipPath>
</defs>
</svg>
