<svg width="61" height="61" viewBox="0 0 61 61" fill="none" xmlns="http://www.w3.org/2000/svg">
<path d="M51.9529 23.7111C51.9529 27.559 35.6107 29.4319 23.8485 27.1844C20.6564 26.6055 9.17173 24.0516 8.16553 23.8132V17.3092C9.17173 17.5476 20.6564 20.1015 23.8832 20.6804C35.6107 22.9278 51.9876 21.055 51.9876 17.207V23.7111H51.9529Z" fill="#205863"/>
<path d="M51.9529 33.8927C51.9529 37.7406 35.6107 39.6135 23.8485 37.366C20.6564 36.7872 9.17173 34.2332 8.16553 34.0289V27.4908C9.17173 27.7292 20.6564 30.2831 23.8832 30.862C35.6107 33.1095 51.9876 31.2366 51.9876 27.3887V33.8927H51.9529Z" fill="#205863"/>
<path d="M51.9529 44.1075C51.9529 47.9555 35.6107 49.8284 23.8485 47.5809C20.6564 47.002 9.17173 44.4481 8.16553 44.2097V37.7057C9.17173 37.944 20.6564 40.498 23.8832 41.0769C35.6107 43.3243 51.9876 41.4514 51.9876 37.6035V44.1075H51.9529Z" fill="#205863"/>
<path d="M18.54 15.1304C21.0382 15.6412 24.0915 16.2541 27.353 16.7649C38.3519 18.6378 53.9655 14.9942 32.0024 11.8613L18.54 15.1304Z" fill="#205863"/>
</svg>
