<svg width="52" height="52" viewBox="0 0 52 52" fill="none" xmlns="http://www.w3.org/2000/svg">
<path d="M51 26C51 39.8071 39.8071 51 26 51C12.1929 51 1 39.8071 1 26C1 12.1929 12.1929 1 26 1C39.8071 1 51 12.1929 51 26Z" stroke="currentColor" stroke-width="2"/>
<path d="M27.3662 27.9692V36.5882H23.4069V27.9692H20.1176V24.4744H23.4069V23.2028C23.4069 18.4822 25.3789 16 29.5514 16C30.8305 16 31.1503 16.2056 31.8508 16.3731V19.8298C31.0666 19.6928 30.8458 19.6166 30.0311 19.6166C29.0641 19.6166 28.5463 19.8907 28.0743 20.4313C27.6022 20.9719 27.3662 21.9085 27.3662 23.2485V24.482H31.8508L30.6478 27.9768H27.3662V27.9692Z" stroke="currentColor" stroke-width="2"/>
</svg>
