<svg width="51" height="52" viewBox="0 0 51 52" fill="none" xmlns="http://www.w3.org/2000/svg">
<path d="M50 26C50 39.8071 39.031 51 25.5 51C11.969 51 1 39.8071 1 26C1 12.1929 11.969 1 25.5 1C39.031 1 50 12.1929 50 26Z" stroke="currentColor" stroke-width="2"/>
<path d="M19.9678 22.7702H15.7518V36.4891H19.9678V22.7702Z" stroke="currentColor" stroke-width="2"/>
<path d="M31.3723 22.4728C31.2169 22.453 31.0517 22.4431 30.8866 22.4332C28.526 22.3341 27.1952 23.7615 26.7289 24.376C26.6026 24.5446 26.5443 24.6437 26.5443 24.6437V22.8099H22.5129V36.5288H26.7289C26.7289 35.1311 26.7289 33.7434 26.7289 32.3457C26.7289 31.5923 26.7289 30.839 26.7289 30.0856C26.7289 29.1539 26.6609 28.1626 27.1175 27.3101C27.506 26.5964 28.2054 26.2396 28.9923 26.2396C31.3237 26.2396 31.3723 28.3906 31.3723 28.5889C31.3723 28.5988 31.3723 28.6087 31.3723 28.6087V36.5882H35.5883V27.6373C35.5883 24.5743 34.0631 22.7702 31.3723 22.4728Z" stroke="currentColor" stroke-width="2"/>
<path d="M17.8598 20.9959C19.2117 20.9959 20.3077 19.8775 20.3077 18.4979C20.3077 17.1184 19.2117 16 17.8598 16C16.5078 16 15.4118 17.1184 15.4118 18.4979C15.4118 19.8775 16.5078 20.9959 17.8598 20.9959Z" stroke="currentColor" stroke-width="2"/>
</svg>
