<svg width="52" height="52" viewBox="0 0 52 52" fill="none" xmlns="http://www.w3.org/2000/svg">
<path d="M51 26C51 39.8071 39.8071 51 26 51C12.1929 51 1 39.8071 1 26C1 12.1929 12.1929 1 26 1C39.8071 1 51 12.1929 51 26Z" stroke="currentColor" stroke-width="2"/>
<path d="M35.2654 35.1176H17.6169C15.2555 35.1176 13.3529 33.0292 13.3529 30.4605V22.1277C13.3529 19.5486 15.265 17.4706 17.6169 17.4706H35.2654C37.6268 17.4706 39.5294 19.559 39.5294 22.1277V30.4605C39.5389 33.0397 37.6268 35.1176 35.2654 35.1176Z" stroke="currentColor" stroke-width="2"/>
<path d="M31.0713 26.1636L23.6471 21.8824V30.4448L31.0713 26.1636Z" stroke="currentColor" stroke-width="2"/>
</svg>
