<svg width="422" height="232" viewBox="0 0 422 232" fill="none" xmlns="http://www.w3.org/2000/svg">
<g clip-path="url(#clip0_254_5751)">
<path d="M402.058 201.405L401.798 200.889L404.04 199.768L404.296 200.284L402.058 201.405Z" fill="#39439E"/>
<path d="M399.56 206.221L399.044 205.964L400.978 202.098L401.498 202.355L399.56 206.221Z" fill="#39439E"/>
<path d="M399.892 199.387L399.635 198.87L405.499 195.936L405.758 196.452L399.892 199.387Z" fill="#39439E"/>
<path d="M393.68 211.793L393.161 211.535L397.808 202.246L398.324 202.503L393.68 211.793Z" fill="#39439E"/>
<path d="M401.604 195.43L401.348 194.913L403.21 193.98L403.47 194.497L401.604 195.43Z" fill="#39439E"/>
<path d="M391.5 209.943L390.984 209.686L392.836 205.982L393.352 206.24L391.5 209.943Z" fill="#39439E"/>
<path d="M371.418 206.695L370.899 206.438L371.825 204.588L372.344 204.845L371.418 206.695Z" fill="#39439E"/>
<path d="M370.984 201.364L370.468 201.106L376.95 188.148L377.466 188.406L370.984 201.364Z" fill="#39439E"/>
<path d="M368.206 206.92L367.69 206.662L369.542 202.959L370.058 203.217L368.206 206.92Z" fill="#39439E"/>
<path d="M367.772 201.587L367.256 201.33L376.52 182.803L377.036 183.06L367.772 201.587Z" fill="#39439E"/>
<path d="M364.653 201.623L364.137 201.365L374.326 180.99L374.839 181.248L364.653 201.623Z" fill="#39439E"/>
<path d="M362.479 199.772L361.96 199.515L373.086 177.268L373.602 177.525L362.479 199.772Z" fill="#39439E"/>
<path d="M360.299 197.928L359.783 197.67L369.973 177.297L370.489 177.555L360.299 197.928Z" fill="#39439E"/>
<path d="M358.126 196.078L357.61 195.82L368.729 173.58L369.248 173.837L358.126 196.078Z" fill="#39439E"/>
<path d="M372.385 166.631L372.129 166.114L373.998 165.18L374.258 165.696L372.385 166.631Z" fill="#39439E"/>
<path d="M355.02 196.087L354.504 195.829L367.502 169.83L368.018 170.087L355.02 196.087Z" fill="#39439E"/>
<path d="M377.531 160.958L377.275 160.441L379.127 159.514L379.383 160.032L377.531 160.958Z" fill="#39439E"/>
<path d="M370.099 164.675L369.836 164.159L371.708 163.223L371.965 163.739L370.099 164.675Z" fill="#39439E"/>
<path d="M352.843 194.24L352.327 193.983L365.322 167.994L365.838 168.251L352.843 194.24Z" fill="#39439E"/>
<path d="M371.541 160.853L371.281 160.336L376.841 157.557L377.097 158.073L371.541 160.853Z" fill="#39439E"/>
<path d="M364.649 164.301L364.584 164.168L364.225 163.988L364.304 163.828L369.422 161.268L369.679 161.784L364.649 164.301Z" fill="#39439E"/>
<path d="M362.712 168.303L362.192 168.046L363.139 166.156L363.658 166.414L362.712 168.303Z" fill="#39439E"/>
<path d="M349.734 194.251L349.218 193.994L359.404 173.619L359.923 173.876L349.734 194.251Z" fill="#39439E"/>
<path d="M361.474 164.574L360.958 164.316L362.233 161.757L367.133 159.309L367.389 159.825L362.667 162.186L361.474 164.574Z" fill="#39439E"/>
<path d="M346.621 194.28L346.105 194.023L357.231 171.771L357.747 172.029L346.621 194.28Z" fill="#39439E"/>
<path d="M360.422 160.476L359.903 160.217L360.169 159.69L364.844 157.354L365.1 157.87L360.6 160.121L360.422 160.476Z" fill="#39439E"/>
<path d="M358.355 164.614L357.839 164.356L358.779 162.477L359.295 162.734L358.355 164.614Z" fill="#39439E"/>
<path d="M336.49 198.473L336.232 197.957L342.637 194.756L355.977 168.074L356.496 168.33L343.067 195.186L336.49 198.473Z" fill="#39439E"/>
<path d="M357.118 160.892L356.602 160.635L358.106 157.623L360.672 156.338L360.931 156.856L358.536 158.053L357.118 160.892Z" fill="#39439E"/>
<path d="M332.348 197.44L332.094 196.924L340.569 192.685L353.803 166.223L354.319 166.48L340.998 193.117L332.348 197.44Z" fill="#39439E"/>
<path d="M354.934 159.046L354.418 158.789L355.396 156.834L355.915 157.091L354.934 159.046Z" fill="#39439E"/>
<path d="M331.917 194.56L331.659 194.043L338.504 190.622L349.775 168.082L350.291 168.34L338.933 191.051L331.917 194.56Z" fill="#39439E"/>
<path d="M352.754 157.206L352.238 156.948L353.967 153.489L354.056 153.445L354.203 153.717L354.439 153.834L352.754 157.206Z" fill="#39439E"/>
<path d="M331.49 191.672L331.232 191.155L336.435 188.554L345.746 169.936L346.266 170.193L336.868 188.984L331.49 191.672Z" fill="#39439E"/>
<path d="M347.786 160.94L347.273 160.683L349.125 156.971L349.641 157.228L347.786 160.94Z" fill="#39439E"/>
<path d="M345.937 164.642L345.421 164.385L346.344 162.535L346.86 162.792L345.937 164.642Z" fill="#39439E"/>
<path d="M331.069 188.782L330.811 188.265L334.367 186.488L341.717 171.789L342.233 172.046L334.8 186.918L331.069 188.782Z" fill="#39439E"/>
<path d="M347.468 155.38L346.952 155.123L347.882 153.258L348.398 153.515L347.468 155.38Z" fill="#39439E"/>
<path d="M344.683 160.945L344.167 160.688L346.02 156.98L346.539 157.238L344.683 160.945Z" fill="#39439E"/>
<path d="M341.909 166.498L341.392 166.241L343.242 162.539L343.758 162.796L341.909 166.498Z" fill="#39439E"/>
<path d="M330.68 185.876L330.422 185.359L332.303 184.419L335.836 177.35L336.355 177.607L332.733 184.849L330.68 185.876Z" fill="#39439E"/>
<path d="M343.432 157.244L342.913 156.986L345.705 151.412L346.221 151.67L343.432 157.244Z" fill="#39439E"/>
<path d="M340.66 162.796L340.144 162.539L341.994 158.838L342.51 159.095L340.66 162.796Z" fill="#39439E"/>
<path d="M337.882 168.349L337.367 168.092L338.289 166.242L338.808 166.5L337.882 168.349Z" fill="#39439E"/>
<path d="M330.576 182.828L330.388 182.538L330.189 182.439L330.818 181.182L331.337 181.439L330.662 182.785L330.576 182.828Z" fill="#39439E"/>
<path d="M335.704 166.502L335.188 166.245L341.667 153.287L342.185 153.544L335.704 166.502Z" fill="#39439E"/>
<path d="M341.84 148.026L341.326 147.768L343.429 143.568L343.945 143.826L341.84 148.026Z" fill="#39439E"/>
<path d="M337.208 157.297L336.689 157.04L338.543 153.338L339.059 153.596L337.208 157.297Z" fill="#39439E"/>
<path d="M340.492 144.528L339.973 144.27L341.566 141.088L343.962 139.891L344.219 140.407L341.998 141.518L340.492 144.528Z" fill="#39439E"/>
<path d="M332.145 161.221L331.625 160.964L336.256 151.709L336.772 151.966L332.145 161.221Z" fill="#39439E"/>
<path d="M330.293 164.922L329.778 164.665L330.703 162.814L331.219 163.072L330.293 164.922Z" fill="#39439E"/>
<path d="M339.161 140.988L338.643 140.731L339.499 139.019L343.341 137.1L343.597 137.616L339.928 139.449L339.161 140.988Z" fill="#39439E"/>
<path d="M329.858 159.594L329.342 159.337L335.821 146.375L336.34 146.633L329.858 159.594Z" fill="#39439E"/>
<path d="M327.082 165.146L326.566 164.889L327.492 163.035L328.007 163.292L327.082 165.146Z" fill="#39439E"/>
<path d="M337.776 137.426L337.66 137.195L337.369 137.075L337.432 136.953L340.826 135.256L341.084 135.772L337.776 137.426Z" fill="#39439E"/>
<path d="M333.126 146.86L332.607 146.602L334.464 142.893L334.98 143.15L333.126 146.86Z" fill="#39439E"/>
<path d="M326.644 159.813L326.128 159.556L331.681 148.451L332.197 148.708L326.644 159.813Z" fill="#39439E"/>
<path d="M323.865 165.373L323.35 165.115L325.204 161.408L325.723 161.666L323.865 165.373Z" fill="#39439E"/>
<path d="M421.211 66.3136L420.951 65.7973L421.617 65.4648L421.874 65.9815L421.211 66.3136Z" fill="#39439E"/>
<path d="M338.569 133.932L338.311 133.415L340.189 132.477L340.443 132.993L338.569 133.932Z" fill="#39439E"/>
<path d="M325.282 156.336L324.766 156.079L326.617 152.377L327.136 152.634L325.282 156.336Z" fill="#39439E"/>
<path d="M321.576 163.745L321.06 163.488L321.989 161.633L322.508 161.89L321.576 163.745Z" fill="#39439E"/>
<path d="M418.456 64.5872L418.197 64.0706L420.233 63.0547L420.493 63.571L418.456 64.5872Z" fill="#39439E"/>
<path d="M385.927 81.4506L385.411 81.1933L385.896 80.2229L386.179 80.0801L386.439 80.5967L386.326 80.6534L385.927 81.4506Z" fill="#39439E"/>
<path d="M319.289 162.12L318.773 161.863L320.628 158.152L321.147 158.41L319.289 162.12Z" fill="#39439E"/>
<path d="M419.475 60.754L418.959 60.496L419.933 58.5449L420.449 58.8019L419.475 60.754Z" fill="#39439E"/>
<path d="M415.942 62.7478L415.682 62.2311L417.623 61.2617L417.879 61.7784L415.942 62.7478Z" fill="#39439E"/>
<path d="M381.697 83.7152L381.177 83.4579L383.829 78.1571L387.864 76.1387L388.121 76.6553L384.259 78.587L381.697 83.7152Z" fill="#39439E"/>
<path d="M337.289 128.369L337.032 127.852L340.743 125.996L341.001 126.513L337.289 128.369Z" fill="#39439E"/>
<path d="M317.006 160.493L316.488 160.236L319.271 154.672L319.786 154.93L317.006 160.493Z" fill="#39439E"/>
<path d="M413.43 60.9021L413.17 60.3854L416.912 58.5156L417.025 58.7401L417.322 58.8577L417.281 58.9438L417.172 59.0323L413.43 60.9021Z" fill="#39439E"/>
<path d="M396.745 69.2435L396.485 68.7268L407.594 63.1738L407.854 63.6908L396.745 69.2435Z" fill="#39439E"/>
<path d="M379.407 82.0901L378.888 81.8328L381.761 76.0906L389.077 72.4316L389.337 72.9479L382.192 76.5208L379.407 82.0901Z" fill="#39439E"/>
<path d="M329.507 129.159L329.385 128.915L329.11 128.795L329.16 128.688L329.249 128.643L340.091 123.223L340.348 123.739L329.507 129.159Z" fill="#39439E"/>
<path d="M322.125 144.047L321.609 143.79L325.314 136.383L325.83 136.64L322.125 144.047Z" fill="#39439E"/>
<path d="M315.649 157.008L315.13 156.75L318.835 149.342L319.351 149.599L315.649 157.008Z" fill="#39439E"/>
<path d="M380.039 74.4945L380.005 74.4241L379.595 74.2201L379.697 74.0213L414.763 56.4893L415.299 55.416L415.818 55.675L415.193 56.9195L380.111 74.4781L380.09 74.4686L380.039 74.4945Z" fill="#39439E"/>
<path d="M367.861 98.9797L367.345 98.7224L368.271 96.8711L368.787 97.1284L367.861 98.9797Z" fill="#39439E"/>
<path d="M348.948 116.338L348.691 115.822L362.161 109.087L363.624 106.164L364.14 106.421L362.592 109.517L348.948 116.338Z" fill="#39439E"/>
<path d="M326.348 129.41L325.832 129.153L327.098 126.619L339.436 120.449L339.694 120.966L327.528 127.049L326.348 129.41Z" fill="#39439E"/>
<path d="M324.473 133.157L323.958 132.9L324.886 131.037L325.402 131.295L324.473 133.157Z" fill="#39439E"/>
<path d="M319.844 142.419L319.325 142.161L323.03 134.756L323.546 135.014L319.844 142.419Z" fill="#39439E"/>
<path d="M313.361 155.38L312.843 155.123L316.551 147.713L317.067 147.97L313.361 155.38Z" fill="#39439E"/>
<path d="M389.149 66.8406L388.889 66.324L412.777 54.3809L412.89 54.6033L413.191 54.7191L413.146 54.8056L413.034 54.8975L389.149 66.8406Z" fill="#39439E"/>
<path d="M349.409 113.005L349.153 112.489L360.094 107.019L365.616 95.9746L366.132 96.2319L360.521 107.449L349.409 113.005Z" fill="#39439E"/>
<path d="M317.187 141.523L316.671 141.266L325.03 124.551L339.897 117.117L340.155 117.634L325.46 124.981L317.187 141.523Z" fill="#39439E"/>
<path d="M314.411 147.075L313.895 146.818L314.82 144.967L315.336 145.224L314.411 147.075Z" fill="#39439E"/>
<path d="M311.632 152.632L311.116 152.375L312.97 148.67L313.486 148.927L311.632 152.632Z" fill="#39439E"/>
<path d="M383.156 66.7363L382.899 66.2193L410.71 52.3145L410.837 52.5683L411.103 52.6958L411.059 52.7822L410.97 52.8311L383.156 66.7363Z" fill="#39439E"/>
<path d="M375.905 70.3635L375.778 70.1092L375.505 70.003L375.549 69.896L379.175 68.084L379.431 68.6006L375.905 70.3635Z" fill="#39439E"/>
<path d="M366.733 88.8338L366.214 88.5769L367.143 86.7266L367.659 86.9839L366.733 88.8338Z" fill="#39439E"/>
<path d="M364.881 92.5353L364.365 92.2777L365.288 90.4277L365.807 90.685L364.881 92.5353Z" fill="#39439E"/>
<path d="M363.03 96.2382L362.514 95.9813L363.44 94.1289L363.956 94.3866L363.03 96.2382Z" fill="#39439E"/>
<path d="M361.174 99.9511L360.658 99.6938L361.587 97.8359L362.103 98.0939L361.174 99.9511Z" fill="#39439E"/>
<path d="M345.275 111.976L345.015 111.459L348.719 109.607L348.975 110.124L345.275 111.976Z" fill="#39439E"/>
<path d="M312.237 145.228L311.718 144.971L322.963 122.485L339.462 114.234L339.72 114.751L323.392 122.916L312.237 145.228Z" fill="#39439E"/>
<path d="M309.457 150.786L308.938 150.529L310.792 146.822L311.308 147.08L309.457 150.786Z" fill="#39439E"/>
<path d="M409.743 49.2091L409.23 48.9518L410.194 47.0195L410.713 47.2772L409.743 49.2091Z" fill="#39439E"/>
<path d="M372.918 70.2619L372.402 70.005L373.492 67.8229L406.6 51.2695L406.859 51.7858L373.923 68.2534L372.918 70.2619Z" fill="#39439E"/>
<path d="M362.708 90.6876L362.189 90.4299L365.89 83.0273L366.409 83.2846L362.708 90.6876Z" fill="#39439E"/>
<path d="M344.837 109.091L344.581 108.575L348.289 106.723L348.545 107.24L344.837 109.091Z" fill="#39439E"/>
<path d="M311.911 139.679L311.395 139.422L320.894 120.418L339.03 111.352L339.285 111.869L321.327 120.848L311.911 139.679Z" fill="#39439E"/>
<path d="M406.767 48.7304L406.589 48.3781L406.449 48.3087L407.034 47.1367L407.549 47.3944L406.921 48.6518L406.767 48.7304Z" fill="#39439E"/>
<path d="M369.792 70.3115L369.276 70.0539L371.425 65.7556L404.304 49.3164L404.56 49.8327L371.856 66.1855L369.792 70.3115Z" fill="#39439E"/>
<path d="M355.881 98.1323L355.361 97.8753L365.561 77.4785L366.08 77.7355L355.881 98.1323Z" fill="#39439E"/>
<path d="M344.403 106.208L344.147 105.692L347.858 103.838L348.111 104.355L344.403 106.208Z" fill="#39439E"/>
<path d="M310.657 135.981L310.142 135.724L318.828 118.352L340.441 107.545L340.698 108.062L319.257 118.782L310.657 135.981Z" fill="#39439E"/>
<path d="M366.682 70.3263L366.166 70.0686L369.361 63.687L400.124 48.3047L400.384 48.8213L369.788 64.1169L366.682 70.3263Z" fill="#39439E"/>
<path d="M352.676 98.345L352.156 98.0877L362.462 77.4805L362.978 77.7384L352.676 98.345Z" fill="#39439E"/>
<path d="M343.97 103.326L343.713 102.81L349.31 100.01L349.567 100.526L343.97 103.326Z" fill="#39439E"/>
<path d="M307.557 135.983L307.038 135.725L316.762 116.282L336.306 106.51L336.564 107.026L317.192 116.712L307.557 135.983Z" fill="#39439E"/>
<path d="M362.65 72.1884L362.134 71.9311L367.29 61.6203L392.268 49.1328L392.525 49.6495L367.721 62.0508L362.65 72.1884Z" fill="#39439E"/>
<path d="M306.304 132.284L305.789 132.027L314.693 114.215L349.758 96.6838L358.433 79.334L358.949 79.5913L350.192 97.1137L315.122 114.645L306.304 132.284Z" fill="#39439E"/>
<path d="M251.806 188.68L251.29 188.422L254.065 182.871L254.582 183.128L251.806 188.68Z" fill="#39439E"/>
<path d="M305.051 128.585L304.535 128.328L312.626 112.148L347.69 94.6161L365.223 59.5518L386.278 49.0254L386.538 49.5417L365.657 59.9824L348.121 95.0463L313.056 112.579L305.051 128.585Z" fill="#39439E"/>
<path d="M292.287 149.264L292.029 148.747L293.986 147.768L294.244 148.284L292.287 149.264Z" fill="#39439E"/>
<path d="M248.704 188.682L248.188 188.425L255.591 173.617L256.108 173.874L248.704 188.682Z" fill="#39439E"/>
<path d="M301.951 128.59L301.435 128.332L310.561 110.083L345.627 92.5509L363.156 57.4876L385.845 46.1445L386.101 46.6615L363.587 57.9178L346.054 92.9811L310.991 110.513L301.951 128.59Z" fill="#39439E"/>
<path d="M289.995 147.308L289.737 146.792L293.113 145.104L293.232 145.344L293.51 145.468L293.467 145.555L293.37 145.62L289.995 147.308Z" fill="#39439E"/>
<path d="M247.454 184.985L246.936 184.728L254.343 169.916L254.859 170.174L247.454 184.985Z" fill="#39439E"/>
<path d="M296.071 134.146L295.555 133.889L308.492 108.015L343.559 90.4823L361.092 55.4191L381.707 45.1113L381.963 45.6276L361.522 55.8493L343.986 90.9125L308.922 108.444L296.071 134.146Z" fill="#39439E"/>
<path d="M285.839 146.285L285.582 145.769L291.047 143.037L291.304 143.553L285.839 146.285Z" fill="#39439E"/>
<path d="M248.052 177.586L247.535 177.328L248.461 175.477L248.977 175.734L248.052 177.586Z" fill="#39439E"/>
<path d="M285.418 143.395L285.161 142.879L288.895 141.013L306.425 105.948L341.493 88.4164L359.025 53.3528L377.569 44.0801L377.832 44.5967L359.456 53.783L341.923 88.8462L306.858 106.379L289.326 141.443L285.418 143.395Z" fill="#39439E"/>
<path d="M223.441 200.678L223.184 200.162L234.36 194.574L234.617 195.091L223.441 200.678Z" fill="#39439E"/>
<path d="M285.021 140.494L284.764 139.978L286.827 138.946L304.358 103.882L339.423 86.3508L356.957 51.2869L373.431 43.0488L373.687 43.5655L357.388 51.7167L339.853 86.781L304.788 104.312L287.256 139.377L285.021 140.494Z" fill="#39439E"/>
<path d="M241.845 177.59L241.329 177.333L245.031 169.93L245.547 170.189L241.845 177.59Z" fill="#39439E"/>
<path d="M236.277 188.73L235.761 188.473L238.554 182.887L239.07 183.144L236.277 188.73Z" fill="#39439E"/>
<path d="M219.304 199.648L219.045 199.132L234.227 191.542L234.781 190.43L235.298 190.687L234.657 191.972L219.304 199.648Z" fill="#39439E"/>
<path d="M282.723 138.539L282.466 138.022L284.756 136.877L302.29 101.814L337.355 84.2818L354.89 49.2175L371.145 41.0898L371.401 41.6065L355.32 49.6481L337.785 84.7123L302.719 102.245L285.186 137.308L282.723 138.539Z" fill="#39439E"/>
<path d="M217.016 197.69L216.759 197.173L232.159 189.475L243.78 166.232L244.297 166.49L232.588 189.905L217.016 197.69Z" fill="#39439E"/>
<path d="M282.759 135.423L282.501 134.907L282.691 134.812L300.224 99.7484L335.289 82.2165L352.823 47.1522L367.01 40.0605L367.267 40.5769L353.254 47.5824L335.722 82.6467L300.653 100.179L283.122 135.242L282.759 135.423Z" fill="#39439E"/>
<path d="M216.581 194.809L216.323 194.292L230.092 187.409L247.625 152.344L254.205 149.055L254.462 149.571L248.055 152.773L230.522 187.839L216.581 194.809Z" fill="#39439E"/>
<path d="M370.533 35.8406L370.276 35.3243L375.826 32.5488L376.082 33.0654L370.533 35.8406Z" fill="#39439E"/>
<path d="M361.276 40.4684L361.02 39.9518L366.573 37.1758L366.829 37.6917L361.276 40.4684Z" fill="#39439E"/>
<path d="M282.387 130.509L281.871 130.252L298.156 97.6808L333.221 80.1488L350.756 45.0856L357.31 41.8066L357.566 42.323L351.183 45.5155L333.654 80.579L298.586 98.111L282.387 130.509Z" fill="#39439E"/>
<path d="M214.294 192.849L214.036 192.333L228.025 185.339L245.557 150.275L255.626 145.24L255.884 145.756L245.988 150.705L228.455 185.769L214.294 192.849Z" fill="#39439E"/>
<path d="M368.247 33.8854L367.987 33.3687L371.691 31.5176L371.948 32.0342L368.247 33.8854Z" fill="#39439E"/>
<path d="M360.843 37.5864L360.586 37.0697L364.287 35.2188L364.547 35.7357L360.843 37.5864Z" fill="#39439E"/>
<path d="M351.535 42.2396L351.278 41.723L353.161 40.7812L353.417 41.2976L351.535 42.2396Z" fill="#39439E"/>
<path d="M279.086 130.905L278.569 130.649L296.089 95.6143L331.155 78.082L348.685 43.0188L348.972 42.877L349.228 43.3936L349.119 43.449L331.585 78.5122L296.519 96.0442L279.086 130.905Z" fill="#39439E"/>
<path d="M213.86 189.968L213.603 189.452L225.959 183.273L243.492 148.209L257.045 141.434L257.302 141.95L243.922 148.639L226.389 183.703L213.86 189.968Z" fill="#39439E"/>
<path d="M360.409 34.7022L360.149 34.1856L367.55 30.4844L367.81 31.001L360.409 34.7022Z" fill="#39439E"/>
<path d="M278.023 126.83L277.507 126.573L294.021 93.5467L329.086 76.0154L346.621 40.9511L348.982 39.7695L349.242 40.2865L347.048 41.3813L329.515 76.4456L294.451 93.9769L278.023 126.83Z" fill="#39439E"/>
<path d="M213.425 187.086L213.167 186.568L223.893 181.206L241.424 146.144L251.056 141.328L251.313 141.845L241.854 146.574L224.323 181.636L213.425 187.086Z" fill="#39439E"/>
<path d="M358.122 32.7471L357.863 32.2309L365.267 28.5293L365.524 29.0458L358.122 32.7471Z" fill="#39439E"/>
<path d="M274.898 126.879L274.382 126.621L291.954 91.4781L327.019 73.9461L344.55 38.8819L348.582 36.8672L348.842 37.3838L344.981 39.3117L327.449 74.3763L292.385 91.9083L274.898 126.879Z" fill="#39439E"/>
<path d="M212.991 184.2L212.734 183.684L221.825 179.138L239.358 144.075L267.284 130.113L267.542 130.63L239.788 144.506L222.255 179.568L212.991 184.2Z" fill="#39439E"/>
<path d="M271.62 125.489L271.363 124.973L272.357 124.476L289.889 89.4127L324.956 71.8804L342.486 36.8162L346.959 34.5801L347.215 35.0967L342.917 37.2467L325.386 72.311L290.319 89.8429L272.786 124.907L271.62 125.489Z" fill="#39439E"/>
<path d="M247.397 137.6L247.139 137.083L267.514 126.896L267.771 127.413L247.397 137.6Z" fill="#39439E"/>
<path d="M211.361 181.915L211.103 181.399L219.756 177.072L237.289 142.008L245.285 138.01L245.542 138.526L237.719 142.438L220.186 177.502L211.361 181.915Z" fill="#39439E"/>
<path d="M267.134 124.631L266.876 124.115L270.288 122.408L287.82 87.3446L322.886 69.8126L339.667 36.2539L340.183 36.5112L323.316 70.2425L288.251 87.7748L270.718 122.838L267.134 124.631Z" fill="#39439E"/>
<path d="M246.742 134.828L246.485 134.312L265.007 125.051L265.265 125.567L246.742 134.828Z" fill="#39439E"/>
<path d="M210.708 179.144L210.45 178.626L217.688 175.007L235.221 139.944L242.778 136.166L243.036 136.683L235.651 140.374L218.118 175.437L210.708 179.144Z" fill="#39439E"/>
<path d="M260.899 124.65L260.641 124.133L268.223 120.343L285.754 85.2789L320.818 67.7469L336.412 36.5664L336.928 36.8237L321.251 68.1771L286.184 85.7091L268.653 120.773L260.899 124.65Z" fill="#39439E"/>
<path d="M244.237 132.979L243.979 132.462L258.787 125.059L259.044 125.575L244.237 132.979Z" fill="#39439E"/>
<path d="M210.058 176.363L209.801 175.847L215.622 172.938L233.155 137.873L242.125 133.389L242.384 133.905L233.585 138.304L216.052 173.368L210.058 176.363Z" fill="#39439E"/>
<path d="M260.249 121.875L259.992 121.359L266.155 118.277L283.688 83.213L318.753 65.6817L334.125 34.9434L334.641 35.2007L319.185 66.1119L284.118 83.6435L266.585 118.707L260.249 121.875Z" fill="#39439E"/>
<path d="M243.582 130.207L243.325 129.69L256.282 123.211L256.539 123.728L243.582 130.207Z" fill="#39439E"/>
<path d="M211.296 172.647L211.039 172.13L213.556 170.872L231.089 135.808L241.474 130.615L241.731 131.132L231.519 136.238L213.986 171.302L211.296 172.647Z" fill="#39439E"/>
<path d="M212.02 169.033L211.503 168.776L229.021 133.741L264.087 116.208L281.62 81.1447L316.686 63.6135L331.834 33.3184L332.35 33.5754L317.116 64.0433L282.05 81.5746L264.517 116.639L229.451 134.171L212.02 169.033Z" fill="#39439E"/>
<path d="M240.421 125.584L240.164 125.068L262.02 114.14L279.553 79.077L314.616 61.545L328.617 33.5508L329.133 33.8082L315.046 61.9749L279.983 79.5072L262.45 114.57L240.421 125.584Z" fill="#39439E"/>
<path d="M210.839 165.19L210.323 164.933L226.954 131.673L238.313 125.994L238.57 126.51L227.384 132.103L210.839 165.19Z" fill="#39439E"/>
<path d="M326.846 32.1819L326.33 31.9241L330.039 24.502L330.557 24.7592L326.846 32.1819Z" fill="#39439E"/>
<path d="M209.502 161.662L208.983 161.407L224.886 129.606L259.952 112.073L277.484 77.0098L312.55 59.4778L325.4 33.7773L325.919 34.0348L312.98 59.908L277.915 77.44L260.382 112.503L225.316 130.035L209.502 161.662Z" fill="#39439E"/>
<path d="M208.15 158.168L207.632 157.911L222.819 127.538L257.885 110.007L275.418 74.9427L310.485 57.4104L327.933 22.5117L328.449 22.7689L310.915 57.8406L275.848 75.3725L258.315 110.437L223.249 127.968L208.15 158.168Z" fill="#39439E"/>
<path d="M121.709 231.33L121.452 230.814L121.939 230.57L122.197 231.088L121.709 231.33Z" fill="#39439E"/>
<path d="M259.538 101.791L259.021 101.533L273.352 72.8752L308.416 55.3433L324.654 22.8711L325.17 23.1286L308.846 55.7735L273.782 73.3054L259.538 101.791Z" fill="#39439E"/>
<path d="M207.817 152.63L207.301 152.373L220.75 125.473L255.818 107.941L256.101 107.371L256.617 107.629L256.248 108.372L221.182 125.903L207.817 152.63Z" fill="#39439E"/>
<path d="M115.931 231.204L115.416 230.944L115.557 230.663L120.029 228.428L120.286 228.944L115.986 231.093L115.931 231.204Z" fill="#39439E"/>
<path d="M258.29 98.0905L257.773 97.8332L271.285 70.8105L306.351 53.2792L321.535 22.9102L322.051 23.1673L306.781 53.7094L271.715 71.2403L258.29 98.0905Z" fill="#39439E"/>
<path d="M236.369 115.211L236.112 114.695L253.753 105.874L253.816 105.748L254.332 106.005L254.183 106.304L236.369 115.211Z" fill="#39439E"/>
<path d="M205.643 150.783L205.126 150.526L218.686 123.405L234.258 115.619L234.516 116.136L219.116 123.836L205.643 150.783Z" fill="#39439E"/>
<path d="M113.171 230.523L112.655 230.266L113.49 228.595L117.741 226.471L117.998 226.987L113.92 229.026L113.171 230.523Z" fill="#39439E"/>
<path d="M320.812 19.4454L320.296 19.188L321.295 17.1914L321.81 17.4489L320.812 19.4454Z" fill="#39439E"/>
<path d="M258.89 90.6849L258.374 90.4273L269.216 68.7419L304.281 51.21L319.356 21.0625L319.875 21.3196L304.714 51.6402L269.647 69.1725L258.89 90.6849Z" fill="#39439E"/>
<path d="M256.111 96.2416L255.594 95.9847L257.448 92.2793L257.964 92.5366L256.111 96.2416Z" fill="#39439E"/>
<path d="M237.781 111.404L237.523 110.887L251.682 103.807L254.665 97.8418L255.182 98.0991L252.113 104.238L237.781 111.404Z" fill="#39439E"/>
<path d="M202.536 150.791L202.02 150.534L216.619 121.338L228.271 115.512L228.528 116.029L217.05 121.768L202.536 150.791Z" fill="#39439E"/>
<path d="M111.149 228.366L110.632 228.109L111.422 226.53L115.451 224.516L115.709 225.032L111.852 226.96L111.149 228.366Z" fill="#39439E"/>
<path d="M317.697 19.474L317.181 19.2169L319.091 15.3926L319.607 15.6498L317.697 19.474Z" fill="#39439E"/>
<path d="M255.788 90.6889L255.271 90.4316L267.149 66.6752L302.215 49.1433L316.249 21.0762L316.765 21.3333L302.645 49.5731L267.579 67.1054L255.788 90.6889Z" fill="#39439E"/>
<path d="M239.196 107.594L238.938 107.078L249.615 101.739L252.489 95.9941L253.006 96.2514L250.045 102.169L239.196 107.594Z" fill="#39439E"/>
<path d="M233.644 110.369L233.387 109.853L235.237 108.928L235.494 109.444L233.644 110.369Z" fill="#39439E"/>
<path d="M200.358 148.945L199.841 148.687L214.552 119.271L225.984 113.555L226.241 114.071L214.982 119.701L200.358 148.945Z" fill="#39439E"/>
<path d="M109.7 224.938L109.634 224.803L109.275 224.625L109.356 224.463L116.887 220.699L117.144 221.216L109.7 224.938Z" fill="#39439E"/>
<path d="M314.591 19.4867L314.075 19.2292L316.901 13.5742L317.417 13.8313L314.591 19.4867Z" fill="#39439E"/>
<path d="M231.358 108.413L231.101 107.896L247.551 99.6718L265.084 64.6082L300.15 47.0762L311.295 24.7871L311.811 25.0445L300.58 47.5067L265.514 65.0387L247.981 100.102L231.358 108.413Z" fill="#39439E"/>
<path d="M225.805 111.19L225.548 110.673L227.398 109.748L227.655 110.265L225.805 111.19Z" fill="#39439E"/>
<path d="M196.293 150.875L195.776 150.618L212.485 117.203L216.268 115.312L216.525 115.829L212.915 117.633L196.293 150.875Z" fill="#39439E"/>
<path d="M107.632 222.87L107.594 222.792L107.19 222.592L107.288 222.397L120.158 215.963L120.415 216.479L107.706 222.85L107.689 222.841L107.632 222.87Z" fill="#39439E"/>
<path d="M312.411 17.6397L311.896 17.3823L314.715 11.7461L315.231 12.0036L312.411 17.6397Z" fill="#39439E"/>
<path d="M245.803 98.0885L245.693 97.8186L245.438 97.6918L263.013 62.5411L298.079 45.0095L308.189 24.7891L308.705 25.0466L298.509 45.4393L263.443 62.9716L245.905 98.0475L245.803 98.0885Z" fill="#39439E"/>
<path d="M229.069 106.456L228.812 105.94L241.795 99.4492L242.052 99.9655L229.069 106.456Z" fill="#39439E"/>
<path d="M193.227 150.675L193.086 150.411L192.84 150.289L210.417 115.138L213.977 113.359L214.234 113.876L210.847 115.568L193.314 150.632L193.227 150.675Z" fill="#39439E"/>
<path d="M106.898 220.136L106.641 219.619L117.87 214.004L118.127 214.52L106.898 220.136Z" fill="#39439E"/>
<path d="M309.31 17.644L308.791 17.3865L311.58 11.8105L312.099 12.0677L309.31 17.644Z" fill="#39439E"/>
<path d="M281.33 50.9294L281.073 50.4127L296.013 42.9428L305.087 24.793L305.606 25.0504L296.443 43.3733L281.33 50.9294Z" fill="#39439E"/>
<path d="M243.762 96.0102L243.597 95.7351L243.373 95.6234L260.951 60.4723L279.225 51.3359L279.482 51.8526L261.381 60.9029L243.848 95.9671L243.762 96.0102Z" fill="#39439E"/>
<path d="M226.782 104.498L226.525 103.981L237.64 98.4238L237.898 98.9408L226.782 104.498Z" fill="#39439E"/>
<path d="M223.082 106.348L222.825 105.831L224.675 104.906L224.932 105.423L223.082 106.348Z" fill="#39439E"/>
<path d="M187.067 150.653L186.81 150.137L190.817 148.133L208.348 113.07L209.743 112.373L210 112.89L208.778 113.501L191.247 148.563L187.067 150.653Z" fill="#39439E"/>
<path d="M148.59 181.281L148.074 181.024L150.849 175.469L151.368 175.726L148.59 181.281Z" fill="#39439E"/>
<path d="M108.422 216.27L108.165 215.754L121.135 209.27L121.392 209.786L108.422 216.27Z" fill="#39439E"/>
<path d="M307.134 15.7972L306.615 15.54L310.347 8.07422L310.866 8.33142L307.134 15.7972Z" fill="#39439E"/>
<path d="M284.598 46.195L284.341 45.6787L293.945 40.8765L301.061 26.6465L301.577 26.904L294.375 41.3067L284.598 46.195Z" fill="#39439E"/>
<path d="M241.587 93.9986L241.39 93.5995L241.307 93.5589L241.338 93.4956L241.331 93.482L241.351 93.4717L258.883 58.4095L282.492 46.6055L282.749 47.1221L259.313 58.8394L241.78 93.9036L241.587 93.9986Z" fill="#39439E"/>
<path d="M226.349 101.616L226.092 101.099L229.792 99.248L230.049 99.7644L226.349 101.616Z" fill="#39439E"/>
<path d="M220.798 104.39L220.541 103.874L224.243 102.023L224.5 102.54L220.798 104.39Z" fill="#39439E"/>
<path d="M213.387 108.096L213.129 107.579L214.984 106.652L215.242 107.169L213.387 108.096Z" fill="#39439E"/>
<path d="M184.78 148.698L184.522 148.182L188.751 146.068L206.283 111.003L209.396 109.447L209.654 109.964L206.714 111.434L189.181 146.497L184.78 148.698Z" fill="#39439E"/>
<path d="M143.636 184.984L143.12 184.726L153.684 163.6L156.697 162.092L156.955 162.61L154.115 164.03L143.636 184.984Z" fill="#39439E"/>
<path d="M126.51 204.129L126.253 203.613L129.962 201.758L130.219 202.274L126.51 204.129Z" fill="#39439E"/>
<path d="M107.993 213.384L107.736 212.868L124.401 204.537L124.659 205.053L107.993 213.384Z" fill="#39439E"/>
<path d="M304.956 13.9508L304.437 13.6934L307.223 8.12109L307.742 8.37826L304.956 13.9508Z" fill="#39439E"/>
<path d="M284.166 43.3122L283.908 42.7955L291.88 38.8096L295.179 32.209L295.696 32.4662L292.31 39.2398L284.166 43.3122Z" fill="#39439E"/>
<path d="M235.188 94.0946L234.931 93.5783L239.282 91.402L256.815 56.3388L282.056 43.7188L282.313 44.2354L257.245 56.7686L239.712 91.8322L235.188 94.0946Z" fill="#39439E"/>
<path d="M218.512 102.436L218.254 101.919L231.213 95.4395L231.471 95.9564L218.512 102.436Z" fill="#39439E"/>
<path d="M211.099 106.139L210.841 105.622L216.402 102.844L216.659 103.36L211.099 106.139Z" fill="#39439E"/>
<path d="M182.49 146.74L182.232 146.224L186.682 144L204.215 108.935L208.981 106.553L209.238 107.069L204.645 109.365L187.112 144.43L182.49 146.74Z" fill="#39439E"/>
<path d="M109.417 209.576L109.16 209.059L134.085 196.597L151.617 161.533L152.16 161.262L152.417 161.778L152.048 161.963L134.516 197.027L109.417 209.576Z" fill="#39439E"/>
<path d="M303.703 10.251L303.188 9.99385L305.045 6.27734L305.564 6.53444L303.703 10.251Z" fill="#39439E"/>
<path d="M283.734 40.4248L283.476 39.9081L289.812 36.7402L292.073 32.2207L292.59 32.4782L290.242 37.1704L283.734 40.4248Z" fill="#39439E"/>
<path d="M276.323 44.1315L276.065 43.6145L281.62 40.8379L281.878 41.3539L276.323 44.1315Z" fill="#39439E"/>
<path d="M234.776 91.2003L234.519 90.684L237.213 89.336L254.746 54.2731L274.214 44.5391L274.471 45.0557L255.176 54.7033L237.643 89.7662L234.776 91.2003Z" fill="#39439E"/>
<path d="M219.924 98.6259L219.667 98.1092L232.64 91.623L232.897 92.1397L219.924 98.6259Z" fill="#39439E"/>
<path d="M214.374 101.403L214.116 100.886L217.818 99.0352L218.075 99.5518L214.374 101.403Z" fill="#39439E"/>
<path d="M180.203 144.786L179.946 144.269L184.619 141.934L202.151 106.87L202.488 106.701L202.746 107.217L202.582 107.3L185.047 142.364L180.203 144.786Z" fill="#39439E"/>
<path d="M108.982 206.691L108.725 206.175L132.018 194.528L149.551 159.464L149.816 159.332L150.073 159.849L149.982 159.894L132.449 194.957L108.982 206.691Z" fill="#39439E"/>
<path d="M300.602 10.2547L300.084 9.99761L301.012 8.14453L301.527 8.40193L300.602 10.2547Z" fill="#39439E"/>
<path d="M275.887 41.2495L275.629 40.7329L281.188 37.9531L281.445 38.4691L275.887 41.2495Z" fill="#39439E"/>
<path d="M217.638 96.6707L217.38 96.1541L235.147 87.2719L252.678 52.2076L271.928 42.584L272.185 43.1003L253.11 52.6378L235.577 87.7024L217.638 96.6707Z" fill="#39439E"/>
<path d="M212.088 99.4458L211.831 98.9295L215.532 97.0781L215.79 97.5948L212.088 99.4458Z" fill="#39439E"/>
<path d="M206.524 102.224L206.267 101.707L208.124 100.779L208.381 101.296L206.524 102.224Z" fill="#39439E"/>
<path d="M177.914 142.829L177.656 142.312L182.548 139.866L199.497 105.971L200.014 106.228L182.979 140.297L177.914 142.829Z" fill="#39439E"/>
<path d="M110.397 202.883L110.14 202.367L129.95 192.461L146.841 158.684L147.357 158.941L130.381 192.891L110.397 202.883Z" fill="#39439E"/>
<path d="M275.452 38.3648L275.194 37.8481L282.635 34.1289L282.892 34.6454L275.452 38.3648Z" fill="#39439E"/>
<path d="M266.198 42.9924L265.941 42.4758L267.791 41.5508L268.048 42.0671L266.198 42.9924Z" fill="#39439E"/>
<path d="M209.8 97.4874L209.543 96.971L233.08 85.2025L250.613 50.1386L260.386 45.252L260.644 45.7686L251.043 50.5688L233.51 85.6331L209.8 97.4874Z" fill="#39439E"/>
<path d="M206.096 99.3411L205.838 98.8248L207.692 97.8984L207.949 98.4151L206.096 99.3411Z" fill="#39439E"/>
<path d="M198.4 103.186L198.145 102.67L202.117 100.684L202.375 101.2L198.4 103.186Z" fill="#39439E"/>
<path d="M177.496 139.936L177.239 139.419L180.481 137.798L195.395 107.971L195.912 108.228L180.913 138.228L177.496 139.936Z" fill="#39439E"/>
<path d="M109.962 199.999L109.705 199.483L127.884 190.394L144.649 156.865L145.166 157.123L128.314 190.824L109.962 199.999Z" fill="#39439E"/>
<path d="M278.73 33.6238L278.473 33.1072L280.342 32.1719L280.599 32.6882L278.73 33.6238Z" fill="#39439E"/>
<path d="M262.059 41.9592L261.802 41.4429L263.654 40.5176L263.911 41.0342L262.059 41.9592Z" fill="#39439E"/>
<path d="M213.065 92.7538L212.808 92.2375L231.011 83.1357L248.544 48.0714L250.625 47.0312L250.883 47.5482L248.976 48.5016L231.441 83.5659L213.065 92.7538Z" fill="#39439E"/>
<path d="M207.514 95.532L207.256 95.0154L210.958 93.1641L211.216 93.6807L207.514 95.532Z" fill="#39439E"/>
<path d="M175.207 137.983L174.949 137.466L178.416 135.733L195.949 100.67L199.827 98.7305L200.084 99.2471L196.379 101.1L178.846 136.163L175.207 137.983Z" fill="#39439E"/>
<path d="M111.375 196.19L111.118 195.673L125.815 188.326L142.461 155.037L142.977 155.294L126.245 188.755L111.375 196.19Z" fill="#39439E"/>
<path d="M259.775 40.0021L259.518 39.4858L263.22 37.6348L263.477 38.1511L259.775 40.0021Z" fill="#39439E"/>
<path d="M252.36 43.711L252.102 43.1947L253.961 42.2656L254.218 42.7823L252.36 43.711Z" fill="#39439E"/>
<path d="M189.701 108.248L189.185 107.99L193.88 98.6011L228.946 81.0692L242.759 53.4434L243.275 53.7007L229.375 81.499L194.31 99.0313L189.701 108.248Z" fill="#39439E"/>
<path d="M176.709 134.126L176.557 133.877L176.303 133.75L188.258 109.842L188.775 110.099L176.782 134.083L176.709 134.126Z" fill="#39439E"/>
<path d="M110.939 193.31L110.682 192.793L123.749 186.263L139.326 155.107L139.843 155.365L124.178 186.692L110.939 193.31Z" fill="#39439E"/>
<path d="M257.487 38.0469L257.229 37.5302L262.781 34.7539L263.039 35.2706L257.487 38.0469Z" fill="#39439E"/>
<path d="M241.101 51.853L240.585 51.5957L243.395 45.9727L243.911 46.2303L241.101 51.853Z" fill="#39439E"/>
<path d="M186.6 108.251L186.083 107.994L191.813 96.5338L226.879 79.0015L238.73 55.3008L239.246 55.5581L227.309 79.4313L192.243 96.9636L186.6 108.251Z" fill="#39439E"/>
<path d="M175.433 130.581L174.916 130.324L175.885 128.387L176.401 128.644L175.433 130.581Z" fill="#39439E"/>
<path d="M112.357 189.502L112.1 188.986L121.682 184.194L137.149 153.262L137.666 153.519L122.113 184.624L112.357 189.502Z" fill="#39439E"/>
<path d="M257.054 35.1613L256.796 34.6446L267.902 29.0918L268.159 29.6088L257.054 35.1613Z" fill="#39439E"/>
<path d="M238.923 50.0045L238.406 49.7475L241.213 44.1348L241.73 44.3921L238.923 50.0045Z" fill="#39439E"/>
<path d="M195.087 92.4403L194.83 91.9237L224.813 76.9343L237.48 51.5996L237.997 51.8576L225.244 77.3642L195.087 92.4403Z" fill="#39439E"/>
<path d="M186.274 102.699L185.758 102.442L189.658 94.6406L190.175 94.8979L186.274 102.699Z" fill="#39439E"/>
<path d="M111.924 186.618L111.666 186.102L119.615 182.127L134.971 151.418L135.487 151.675L120.045 182.557L111.924 186.618Z" fill="#39439E"/>
<path d="M260.318 30.4297L260.061 29.9134L275.342 22.2718L275.84 21.2773L276.357 21.5345L275.773 22.7021L260.318 30.4297Z" fill="#39439E"/>
<path d="M192.799 90.4844L192.542 89.9674L222.745 74.867L238.087 44.1816L238.605 44.4386L223.175 75.2972L192.799 90.4844Z" fill="#39439E"/>
<path d="M185.958 97.1336L185.441 96.8759L187.538 92.6836L188.055 92.9409L185.958 97.1336Z" fill="#39439E"/>
<path d="M113.353 182.801L113.096 182.285L117.547 180.059L132.793 149.57L133.31 149.828L117.977 180.489L113.353 182.801Z" fill="#39439E"/>
<path d="M224.249 66.9527L223.733 66.6951L235.777 42.6113L236.293 42.8686L224.249 66.9527Z" fill="#39439E"/>
<path d="M220.054 73.757L219.797 73.2403L220.676 72.8012L222.797 68.5566L223.314 68.8139L221.106 73.2311L220.054 73.757Z" fill="#39439E"/>
<path d="M192.099 87.7348L191.842 87.2181L217.802 74.2383L218.06 74.7549L192.099 87.7348Z" fill="#39439E"/>
<path d="M112.664 180.045L112.407 179.529L115.48 177.992L131.415 146.123L131.931 146.381L115.91 178.422L112.664 180.045Z" fill="#39439E"/>
<path d="M222.888 63.4679L222.372 63.2103L233.484 40.9844L234.003 41.2417L222.888 63.4679Z" fill="#39439E"/>
<path d="M200.707 80.3315L200.449 79.8148L209.706 75.1875L209.964 75.7042L200.707 80.3315Z" fill="#39439E"/>
<path d="M195.154 83.1049L194.897 82.5886L198.598 80.7383L198.856 81.2546L195.154 83.1049Z" fill="#39439E"/>
<path d="M112.062 177.245L111.805 176.729L113.412 175.925L128.19 146.373L128.706 146.631L113.842 176.356L112.062 177.245Z" fill="#39439E"/>
<path d="M273.257 9.13088L272.741 8.87341L273.67 7.01367L274.186 7.27114L273.257 9.13088Z" fill="#39439E"/>
<path d="M224.305 54.432L223.787 54.175L232.129 37.4922L232.647 37.7491L224.305 54.432Z" fill="#39439E"/>
<path d="M222.456 58.134L221.939 57.8764L222.865 56.0254L223.382 56.2827L222.456 58.134Z" fill="#39439E"/>
<path d="M218.736 65.5691L218.219 65.3114L219.154 63.4434L219.67 63.7007L218.736 65.5691Z" fill="#39439E"/>
<path d="M211.169 72.0007L210.912 71.4841L216.617 68.6309L216.875 69.1479L211.169 72.0007Z" fill="#39439E"/>
<path d="M207.457 73.8535L207.2 73.3372L209.053 72.4102L209.31 72.9265L207.457 73.8535Z" fill="#39439E"/>
<path d="M188.941 83.1109L188.684 82.5945L197.945 77.9648L198.202 78.4815L188.941 83.1109Z" fill="#39439E"/>
<path d="M109.532 175.411L109.275 174.894L111.347 173.86L125.903 144.746L126.42 145.003L111.777 174.29L109.532 175.411Z" fill="#39439E"/>
<path d="M269.101 11.2394L268.584 10.9822L270.455 7.24219L270.972 7.49938L269.101 11.2394Z" fill="#39439E"/>
<path d="M204.951 72.007L204.694 71.4904L214.476 66.6L228.91 37.7324L229.426 37.9904L214.906 67.0305L204.951 72.007Z" fill="#39439E"/>
<path d="M188.291 80.3373L188.033 79.8207L197.288 75.1934L197.545 75.71L188.291 80.3373Z" fill="#39439E"/>
<path d="M107.011 173.571L106.753 173.052L109.279 171.792L123.616 143.119L124.132 143.376L109.709 172.222L107.011 173.571Z" fill="#39439E"/>
<path d="M265.682 11.8759L265.165 11.6187L267.236 7.47656L267.753 7.73397L265.682 11.8759Z" fill="#39439E"/>
<path d="M206.154 68.3056L205.896 67.789L212.408 64.5333L225.695 37.9609L226.212 38.2186L212.84 64.9631L206.154 68.3056Z" fill="#39439E"/>
<path d="M189.487 76.6383L189.229 76.1217L194.783 73.3457L195.04 73.862L189.487 76.6383Z" fill="#39439E"/>
<path d="M182.066 80.3484L181.809 79.8317L187.381 77.0469L187.639 77.5639L182.066 80.3484Z" fill="#39439E"/>
<path d="M106.466 170.743L106.207 170.226L107.211 169.724L121.328 141.492L121.845 141.75L107.641 170.154L106.466 170.743Z" fill="#39439E"/>
<path d="M262.021 10.9752L261.764 10.4586L262.94 9.87059L265.892 3.9668L266.409 4.22427L263.37 10.3007L262.021 10.9752Z" fill="#39439E"/>
<path d="M201.791 67.3854L201.534 66.8691L210.342 62.466L221.556 40.0371L222.073 40.2941L210.772 62.8958L201.791 67.3854Z" fill="#39439E"/>
<path d="M183.278 76.6427L183.021 76.1264L192.278 71.498L192.535 72.0144L183.278 76.6427Z" fill="#39439E"/>
<path d="M103.899 168.925L103.642 168.409L105.144 167.657L118.113 141.721L118.63 141.978L105.574 168.088L103.899 168.925Z" fill="#39439E"/>
<path d="M255.693 11.0377L255.437 10.5208L260.96 7.75977L261.026 7.89289L261.384 8.07174L261.304 8.23305L255.693 11.0377Z" fill="#39439E"/>
<path d="M202.997 63.683L202.739 63.1663L208.274 60.3985L217.418 42.1094L217.935 42.3667L208.704 60.8284L202.997 63.683Z" fill="#39439E"/>
<path d="M186.329 72.0168L186.072 71.5001L193.473 67.7988L193.733 68.3155L186.329 72.0168Z" fill="#39439E"/>
<path d="M103.418 166.066L103.267 165.793L103.034 165.677L116.754 138.238L117.27 138.496L103.507 166.022L103.418 166.066Z" fill="#39439E"/>
<path d="M251.33 10.1187L251.073 9.60217L256.683 6.79688L256.941 7.31342L251.33 10.1187Z" fill="#39439E"/>
<path d="M202.351 60.9062L202.094 60.3896L206.207 58.3325L206.728 57.291L207.245 57.5487L206.637 58.7627L202.351 60.9062Z" fill="#39439E"/>
<path d="M187.523 68.3173L187.266 67.8007L192.819 65.0254L193.077 65.5417L187.523 68.3173Z" fill="#39439E"/>
<path d="M101.153 164.099L100.896 163.583L101.012 163.524L112.617 140.316L113.133 140.574L101.442 163.954L101.153 164.099Z" fill="#39439E"/>
<path d="M248.82 8.27277L248.562 7.75588L250.417 6.82812L250.675 7.34467L248.82 8.27277Z" fill="#39439E"/>
<path d="M111.77 137.093L111.254 136.835L112.18 134.982L112.696 135.24L111.77 137.093Z" fill="#39439E"/>
<path d="M100.638 159.356L100.122 159.099L109.404 140.537L109.92 140.794L100.638 159.356Z" fill="#39439E"/>
<path d="M108.305 137.824L107.789 137.567L109.641 133.863L110.158 134.121L108.305 137.824Z" fill="#39439E"/>
<path d="M104.603 145.225L104.086 144.969L105.012 143.117L105.529 143.374L104.603 145.225Z" fill="#39439E"/>
<path d="M106.13 135.975L105.614 135.718L106.539 133.867L107.055 134.124L106.13 135.975Z" fill="#39439E"/>
<path d="M100.577 147.08L100.06 146.823L101.911 143.121L102.428 143.378L100.577 147.08Z" fill="#39439E"/>
<path d="M103.951 134.128L103.435 133.87L105.286 130.168L105.802 130.425L103.951 134.128Z" fill="#39439E"/>
<path d="M98.3975 145.232L97.8809 144.974L98.8069 143.123L99.3235 143.38L98.3975 145.232Z" fill="#39439E"/>
<path d="M102.337 131.154L101.82 130.897L103.672 127.193L104.188 127.45L102.337 131.154Z" fill="#39439E"/>
<path d="M100.488 134.855L99.9712 134.597L100.897 132.746L101.413 133.004L100.488 134.855Z" fill="#39439E"/>
<path d="M96.7837 142.257L96.2671 142L99.0437 136.447L99.5604 136.705L96.7837 142.257Z" fill="#39439E"/>
<path d="M170.942 58.0061L170.685 57.4894L181.79 51.9375L182.047 52.4541L170.942 58.0061Z" fill="#39439E"/>
<path d="M100.489 128.65L99.9722 128.392L100.898 126.541L101.415 126.798L100.489 128.65Z" fill="#39439E"/>
<path d="M94.0111 141.606L93.4941 141.349L96.2705 135.795L96.7871 136.052L94.0111 141.606Z" fill="#39439E"/>
<path d="M168.388 56.1821L168.13 55.6655L181.085 49.1875L181.343 49.7042L168.388 56.1821Z" fill="#39439E"/>
<path d="M100.96 121.511L100.443 121.253L101.372 119.395L101.888 119.652L100.96 121.511Z" fill="#39439E"/>
<path d="M97.2538 128.92L96.7368 128.662L97.6625 126.812L98.1791 127.07L97.2538 128.92Z" fill="#39439E"/>
<path d="M91.6996 140.024L91.1836 139.767L93.0342 136.064L93.5512 136.322L91.6996 140.024Z" fill="#39439E"/>
<path d="M166.54 54.0053L166.282 53.4893L169.984 51.6387L170.242 52.1553L166.54 54.0053Z" fill="#39439E"/>
<path d="M99.001 119.224L98.4844 118.966L102.007 111.923L108.024 108.914L108.282 109.43L102.436 112.353L99.001 119.224Z" fill="#39439E"/>
<path d="M88.8174 139.593L88.3008 139.335L93.8555 128.227L94.3718 128.484L88.8174 139.593Z" fill="#39439E"/>
<path d="M166.543 50.9026L166.286 50.3863L168.136 49.4609L168.393 49.9776L166.543 50.9026Z" fill="#39439E"/>
<path d="M96.1166 118.791L95.5996 118.534L99.9389 109.856L108.033 105.809L108.291 106.326L100.369 110.286L96.1166 118.791Z" fill="#39439E"/>
<path d="M86.8594 137.304L86.3428 137.047L90.9721 127.789L91.4888 128.046L86.8594 137.304Z" fill="#39439E"/>
<path d="M145.881 65.6643L145.364 65.4074L147.218 61.6992L147.734 61.9565L145.881 65.6643Z" fill="#39439E"/>
<path d="M132.683 91.0324L132.423 90.5158L132.938 90.2585L134.234 87.666L134.751 87.9237L133.368 90.6887L132.683 91.0324Z" fill="#39439E"/>
<path d="M93.2334 118.358L92.7168 118.1L97.8724 107.788L109.891 101.779L110.148 102.296L98.3026 108.219L93.2334 118.358Z" fill="#39439E"/>
<path d="M83.9747 136.874L83.458 136.617L85.3124 132.908L85.8291 133.165L83.9747 136.874Z" fill="#39439E"/>
<path d="M162.849 46.5503L162.592 46.0337L169.993 42.332L170.251 42.849L162.849 46.5503Z" fill="#39439E"/>
<path d="M142.999 65.2321L142.482 64.9745L148.405 53.1281L158.889 47.8867L159.146 48.4034L148.835 53.5586L142.999 65.2321Z" fill="#39439E"/>
<path d="M131.02 88.7624L130.763 88.2461L130.872 88.1914L132.281 85.373L132.797 85.63L131.302 88.6219L131.02 88.7624Z" fill="#39439E"/>
<path d="M119.405 94.567L119.147 94.0507L126.57 90.3398L126.828 90.8562L119.405 94.567Z" fill="#39439E"/>
<path d="M89.425 119.775L88.9087 119.518L95.8066 105.723L115.448 95.9023L115.706 96.419L96.2368 106.153L89.425 119.775Z" fill="#39439E"/>
<path d="M81.0866 136.449L80.5703 136.191L83.3552 130.623L83.8715 130.88L81.0866 136.449Z" fill="#39439E"/>
<path d="M141.039 62.9445L140.522 62.6872L146.336 51.0598L169.996 39.2305L170.253 39.7471L146.766 51.4903L141.039 62.9445Z" fill="#39439E"/>
<path d="M126.872 87.7344L126.615 87.2178L128.803 86.1233L131.262 81.209L131.778 81.4659L129.234 86.5535L126.872 87.7344Z" fill="#39439E"/>
<path d="M86.542 119.338L86.0254 119.08L93.7386 103.655L121.006 90.0215L121.264 90.5381L94.1685 104.085L86.542 119.338Z" fill="#39439E"/>
<path d="M79.1311 134.16L78.6147 133.903L81.3986 128.336L81.9152 128.593L79.1311 134.16Z" fill="#39439E"/>
<path d="M138.157 62.5095L137.64 62.2519L144.268 48.9932L170 36.1289L170.257 36.6456L144.698 49.4234L138.157 62.5095Z" fill="#39439E"/>
<path d="M127.92 82.9785L127.403 82.7212L130.234 77.0605L130.751 77.3178L127.92 82.9785Z" fill="#39439E"/>
<path d="M76.2378 133.744L75.7212 133.487L91.6711 101.59L124.777 85.0371L125.034 85.5541L92.1009 102.02L76.2378 133.744Z" fill="#39439E"/>
<path d="M136.201 60.2209L135.684 59.9636L142.204 46.9246L171.866 32.0938L172.124 32.6104L142.634 47.3548L136.201 60.2209Z" fill="#39439E"/>
<path d="M73.3218 133.373L72.8052 133.116L89.6035 99.5197L124.669 81.9878L128.276 74.7734L128.793 75.0311L125.1 82.4176L90.0337 99.9499L73.3218 133.373Z" fill="#39439E"/>
<path d="M134.241 57.9367L133.725 57.6794L140.135 44.8594L173.815 28.0195L174.072 28.5361L140.565 45.2893L134.241 57.9367Z" fill="#39439E"/>
<path d="M72.327 129.165L71.811 128.908L87.5378 97.4558L122.603 79.9235L125.392 74.3477L125.909 74.6053L123.034 80.3541L87.9677 97.8864L72.327 129.165Z" fill="#39439E"/>
<path d="M133.21 53.7989L132.693 53.5413L138.069 42.7921L173.144 25.2432L173.156 25.2485L173.22 25.2168L173.263 25.303L173.658 25.5024L173.564 25.6901L173.477 25.7333L138.499 43.2223L133.21 53.7989Z" fill="#39439E"/>
<path d="M70.3702 126.875L69.8535 126.617L85.4699 95.3878L120.535 77.8565L124.362 70.2031L124.879 70.4604L120.965 78.2871L85.8998 95.8184L70.3702 126.875Z" fill="#39439E"/>
<path d="M179.278 8.05765L178.761 7.80011L181.57 2.1875L182.087 2.44497L179.278 8.05765Z" fill="#39439E"/>
<path d="M133.106 47.8031L132.589 47.5458L136.001 40.7234L171.067 23.1912L174.126 17.0723L174.643 17.3297L171.497 23.6216L136.431 41.1536L133.106 47.8031Z" fill="#39439E"/>
<path d="M68.4147 124.584L67.8984 124.326L83.4034 93.3195L118.469 75.7875L122.406 67.9141L122.923 68.1714L118.899 76.2177L83.8336 93.7497L68.4147 124.584Z" fill="#39439E"/>
<path d="M132.08 43.6582L131.564 43.4005L133.934 38.6588L169 21.1274L177.746 3.63672L178.262 3.89419L169.43 21.5577L134.365 39.089L132.08 43.6582Z" fill="#39439E"/>
<path d="M64.3664 126.481L63.8501 126.224L81.3359 91.2544L116.401 73.7221L120.448 65.6289L120.965 65.8865L116.831 74.1526L81.7658 91.6842L64.3664 126.481Z" fill="#39439E"/>
<path d="M131.065 39.4867L130.548 39.2291L131.867 36.5912L166.932 19.0592L174.866 3.19141L175.384 3.44854L167.362 19.4892L132.297 37.0214L131.065 39.4867Z" fill="#39439E"/>
<path d="M123.636 54.3427L123.12 54.0857L124.045 52.2344L124.561 52.4917L123.636 54.3427Z" fill="#39439E"/>
<path d="M119.934 61.746L119.417 61.4887L120.344 59.6367L120.86 59.894L119.934 61.746Z" fill="#39439E"/>
<path d="M102.774 78.0792L102.516 77.5629L114.336 71.6532L116.634 67.0566L117.151 67.3139L114.766 72.0831L102.774 78.0792Z" fill="#39439E"/>
<path d="M63.5611 121.889L63.0444 121.632L79.2677 89.1879L100.664 78.4902L100.921 79.0065L79.6975 89.6177L63.5611 121.889Z" fill="#39439E"/>
<path d="M131.254 34.4413L130.997 33.9246L164.865 16.9915L171.049 4.62305L171.565 4.88059L165.295 17.4215L131.254 34.4413Z" fill="#39439E"/>
<path d="M116.122 63.1663L115.605 62.9087L123.011 48.0977L123.528 48.3546L116.122 63.1663Z" fill="#39439E"/>
<path d="M104.631 74.0518L104.373 73.5352L112.268 69.5878L114.677 64.7695L115.193 65.0268L112.698 70.0177L104.631 74.0518Z" fill="#39439E"/>
<path d="M60.605 121.599L60.0884 121.342L77.2007 87.1193L100.667 75.3867L100.924 75.9037L77.6309 87.5495L60.605 121.599Z" fill="#39439E"/>
<path d="M129.443 32.2483L129.186 31.7314L162.798 14.9256L170.067 0.386719L170.585 0.643855L163.228 15.3556L129.443 32.2483Z" fill="#39439E"/>
<path d="M114.164 60.8794L113.647 60.6221L120.128 47.6621L120.645 47.9194L114.164 60.8794Z" fill="#39439E"/>
<path d="M104.64 70.9463L104.382 70.4293L110.2 67.5208L112.719 62.4824L113.236 62.7397L110.63 67.9513L104.64 70.9463Z" fill="#39439E"/>
<path d="M59.6534 117.305L59.1367 117.047L75.1351 85.0514L96.9698 74.1348L97.2271 74.6514L75.5653 85.4813L59.6534 117.305Z" fill="#39439E"/>
<path d="M129.535 29.0991L129.278 28.5829L160.73 12.8569L167.026 0.265625L167.542 0.523101L161.16 13.2869L129.535 29.0991Z" fill="#39439E"/>
<path d="M112.209 58.5929L111.692 58.3352L117.248 47.2266L117.764 47.4839L112.209 58.5929Z" fill="#39439E"/>
<path d="M104.657 67.8368L104.4 67.3201L108.131 65.4551L110.761 60.1953L111.278 60.453L108.561 65.8853L104.657 67.8368Z" fill="#39439E"/>
<path d="M57.6967 115.015L57.1797 114.757L73.0677 82.9851L93.2697 72.8848L93.5274 73.4014L73.4976 83.4153L57.6967 115.015Z" fill="#39439E"/>
<path d="M127.69 26.9226L127.433 26.406L158.664 10.7916L164.06 0L164.577 0.257811L159.094 11.2216L127.69 26.9226Z" fill="#39439E"/>
<path d="M109.321 58.164L108.804 57.9067L116.213 43.0898L116.73 43.3468L109.321 58.164Z" fill="#39439E"/>
<path d="M104.728 64.7013L104.47 64.1847L106.066 63.3865L106.92 61.6797L107.437 61.939L106.496 63.8163L104.728 64.7013Z" fill="#39439E"/>
<path d="M55.7403 112.725L55.2236 112.467L70.9993 80.9189L89.57 71.6328L89.8276 72.1491L71.4295 81.3491L55.7403 112.725Z" fill="#39439E"/>
<path d="M123.019 26.1571L122.761 25.6405L156.596 8.72429L160.958 0L161.474 0.257811L157.026 9.15463L123.019 26.1571Z" fill="#39439E"/>
<path d="M110.646 49.3129L110.129 49.0556L114.756 39.8027L115.272 40.0604L110.646 49.3129Z" fill="#39439E"/>
<path d="M106.002 58.606L105.486 58.3487L107.352 54.6152L107.869 54.8729L106.002 58.606Z" fill="#39439E"/>
<path d="M101.995 62.9652L101.737 62.4489L103.998 61.3178L104.498 60.3184L105.015 60.576L104.429 61.748L101.995 62.9652Z" fill="#39439E"/>
<path d="M53.3526 111.302L52.8359 111.044L68.9321 78.8531L86.8727 69.8828L87.1304 70.3991L69.3623 79.2833L53.3526 111.302Z" fill="#39439E"/>
<path d="M119.808 24.6625L119.68 24.4064L119.405 24.3162L119.443 24.1998L154.53 6.65732L157.858 0L158.374 0.257811L154.96 7.08734L119.808 24.6625Z" fill="#39439E"/>
<path d="M106.949 50.5097L106.432 50.2524L111.985 39.1465L112.501 39.4034L106.949 50.5097Z" fill="#39439E"/>
<path d="M96.6177 62.5537L96.3604 62.037L102.01 59.2129L102.267 59.7295L96.6177 62.5537Z" fill="#39439E"/>
<path d="M51.5105 108.786L50.9941 108.529L66.8665 76.7847L85.2455 67.5957L85.5032 68.112L67.2967 77.2149L51.5105 108.786Z" fill="#39439E"/>
<path d="M116.223 25.7614L115.706 25.5044L117.398 22.1223L152.462 4.59037L154.758 0L155.274 0.257811L152.894 5.02036L117.828 22.5523L116.223 25.7614Z" fill="#39439E"/>
<path d="M106.951 44.3009L106.434 44.0432L110.136 36.6406L110.652 36.8979L106.951 44.3009Z" fill="#39439E"/>
<path d="M94.9922 60.2651L94.7349 59.7488L99.9509 57.1406L100.068 57.3774L100.35 57.5042L100.306 57.5879L100.208 57.6573L94.9922 60.2651Z" fill="#39439E"/>
<path d="M50.5964 104.408L50.0801 104.151L64.7971 74.7175L85.4662 64.3828L85.7235 64.8998L65.227 75.1474L50.5964 104.408Z" fill="#39439E"/>
<path d="M114.379 23.2464L113.863 22.9892L115.33 20.055L150.395 2.52277L151.657 0L152.175 0.257811L150.826 2.95301L115.76 20.4853L114.379 23.2464Z" fill="#39439E"/>
<path d="M104.178 43.6473L103.661 43.39L107.363 35.9863L107.879 36.2433L104.178 43.6473Z" fill="#39439E"/>
<path d="M50.6045 98.1927L50.0879 97.935L62.7311 72.6509L97.7961 55.1196L99.9502 50.8125L100.466 51.0698L98.2266 55.5498L63.1613 73.0808L50.6045 98.1927Z" fill="#39439E"/>
<path d="M111.596 22.6121L111.08 22.3547L113.264 17.9864L148.417 0.412109L148.483 0.544347L148.84 0.722168L148.76 0.885378L148.673 0.92874L113.693 18.4167L111.596 22.6121Z" fill="#39439E"/>
<path d="M50.6088 91.9852L50.0918 91.7282L60.664 70.5858L95.7293 53.0535L105.516 33.4824L106.032 33.7398L96.1595 53.4838L61.0942 71.0157L50.6088 91.9852Z" fill="#39439E"/>
<path d="M118.725 12.8024L118.467 12.2858L136.992 3.02344L137.249 3.54L118.725 12.8024Z" fill="#39439E"/>
<path d="M109.75 20.1028L109.233 19.8454L110.184 17.9434L110.701 18.2008L109.75 20.1028Z" fill="#39439E"/>
<path d="M49.6857 87.6287L49.1694 87.3714L58.5969 68.5177L93.6619 50.9857L102.742 32.8281L103.258 33.0853L94.0918 51.4156L59.0268 68.9479L49.6857 87.6287Z" fill="#39439E"/>
<path d="M118.954 9.5874L118.696 9.07082L124.253 6.29297L124.51 6.80918L118.954 9.5874Z" fill="#39439E"/>
<path d="M106.969 19.4595L106.453 19.2019L109.127 13.8534L113.118 11.8574L113.375 12.3741L109.557 14.2837L106.969 19.4595Z" fill="#39439E"/>
<path d="M101.412 30.5767L100.896 30.3196L104.598 22.916L105.115 23.1735L101.412 30.5767Z" fill="#39439E"/>
<path d="M93.9953 45.4094L93.479 45.1521L99.0439 34.0215L99.5606 34.2789L93.9953 45.4094Z" fill="#39439E"/>
<path d="M46.9135 86.9716L46.3965 86.714L56.5303 66.4477L91.5966 48.9161L92.5291 47.0508L93.0458 47.3081L92.0268 49.3463L56.9605 66.8783L46.9135 86.9716Z" fill="#39439E"/>
<path d="M97.7124 31.7745L97.1958 31.5171L107.062 11.7873L124.489 3.07422L124.746 3.59078L107.492 12.2176L97.7124 31.7745Z" fill="#39439E"/>
<path d="M92.1513 42.8974L91.6343 42.6401L96.2715 33.3652L96.7881 33.6227L92.1513 42.8974Z" fill="#39439E"/>
<path d="M45.9895 82.6167L45.4731 82.3598L54.4619 64.3833L89.5279 46.8513L89.5569 46.7949L89.5979 46.8154L89.614 46.8076L89.6243 46.8284L90.0715 47.0539L89.9578 47.2812L54.8918 64.8135L45.9895 82.6167Z" fill="#39439E"/>
<path d="M97.7124 25.5681L97.1958 25.311L104.993 9.71849L119.16 2.63477L119.418 3.15133L105.423 10.1485L97.7124 25.5681Z" fill="#39439E"/>
<path d="M94.0111 32.974L93.4941 32.7165L96.2705 27.1641L96.7871 27.4215L94.0111 32.974Z" fill="#39439E"/>
<path d="M90.3013 40.3924L89.7847 40.1351L92.5699 34.5664L93.0865 34.8237L90.3013 40.3924Z" fill="#39439E"/>
<path d="M79.6543 49.3305L79.397 48.8146L87.4604 44.7832L87.8312 44.041L88.3482 44.2983L87.8906 45.2134L79.6543 49.3305Z" fill="#39439E"/>
<path d="M43.2147 81.9641L42.6978 81.7068L52.3952 62.3139L75.6923 50.666L75.9493 51.1827L52.8251 62.7444L43.2147 81.9641Z" fill="#39439E"/>
<path d="M93.9039 26.9854L93.3872 26.7279L102.925 7.65191L111.753 3.23828L112.01 3.75485L103.356 8.08187L93.9039 26.9854Z" fill="#39439E"/>
<path d="M91.1304 32.537L90.6138 32.2798L92.4651 28.5781L92.9818 28.8357L91.1304 32.537Z" fill="#39439E"/>
<path d="M88.3448 38.1051L87.8281 37.8475L88.7579 35.9883L89.2749 36.2452L88.3448 38.1051Z" fill="#39439E"/>
<path d="M83.414 44.3511L83.1567 43.8344L85.3935 42.7167L86.8915 39.7207L87.4078 39.9777L85.8234 43.1469L83.414 44.3511Z" fill="#39439E"/>
<path d="M40.3321 81.5284L39.8154 81.2708L50.3285 60.2473L77.5501 46.6367L77.807 47.1534L50.7587 60.6779L40.3321 81.5284Z" fill="#39439E"/>
<path d="M92.8731 22.8478L92.3564 22.5903L100.859 5.58422L106.197 2.91602L106.454 3.4323L101.29 6.01419L92.8731 22.8478Z" fill="#39439E"/>
<path d="M88.2452 32.1045L87.7285 31.8474L91.4312 24.4414L91.9478 24.6989L88.2452 32.1045Z" fill="#39439E"/>
<path d="M83.6704 41.1225L83.5087 40.8481L83.2832 40.7353L86.8007 33.7012L87.3173 33.9582L83.7565 41.0794L83.6704 41.1225Z" fill="#39439E"/>
<path d="M66.6997 49.6059L66.4424 49.0893L75.7004 44.4609L75.9581 44.9776L66.6997 49.6059Z" fill="#39439E"/>
<path d="M39.3008 77.3935L38.7842 77.1358L48.2616 58.1827L62.7439 50.9414L63.0008 51.4581L48.6918 58.6129L39.3008 77.3935Z" fill="#39439E"/>
<path d="M90.9167 20.5616L90.4004 20.3042L98.7936 3.51681L98.9494 3.43945L99.1213 3.78918L99.2672 3.86156L90.9167 20.5616Z" fill="#39439E"/>
<path d="M87.215 27.9662L86.6987 27.7088L89.475 22.1562L89.9917 22.4137L87.215 27.9662Z" fill="#39439E"/>
<path d="M85.3614 31.6718L84.8447 31.4147L85.7718 29.5605L86.2884 29.8177L85.3614 31.6718Z" fill="#39439E"/>
<path d="M83.4981 35.3978L82.9814 35.1405L83.9163 33.2715L84.4326 33.529L83.4981 35.3978Z" fill="#39439E"/>
<path d="M77.8387 40.9373L77.5811 40.421L81.2622 38.581L82.0235 37.0566L82.5402 37.3139L81.692 39.0115L77.8387 40.9373Z" fill="#39439E"/>
<path d="M37.3438 75.1045L36.8271 74.8473L46.1945 56.1128L73.8562 42.2832L74.1138 42.7995L46.6244 56.543L37.3438 75.1045Z" fill="#39439E"/>
<path d="M88.0321 20.1255L87.5151 19.8684L93.9989 6.90039L94.5156 7.15786L88.0321 20.1255Z" fill="#39439E"/>
<path d="M86.1813 23.8293L85.665 23.5719L86.59 21.7207L87.1067 21.9782L86.1813 23.8293Z" fill="#39439E"/>
<path d="M84.3331 27.5312L83.8164 27.274L84.7424 25.4219L85.2591 25.679L84.3331 27.5312Z" fill="#39439E"/>
<path d="M82.4737 31.2418L81.957 30.9847L82.8861 29.127L83.4028 29.3841L82.4737 31.2418Z" fill="#39439E"/>
<path d="M75.9927 38.7606L75.7354 38.2439L79.1937 36.5149L80.0739 34.7559L80.5906 35.0132L79.6242 36.9448L75.9927 38.7606Z" fill="#39439E"/>
<path d="M35.3858 72.8208L34.8691 72.5635L44.1261 54.0481L73.866 39.1797L74.123 39.696L44.5563 54.4783L35.3858 72.8208Z" fill="#39439E"/>
<path d="M86.9992 15.9879L86.4829 15.7305L91.114 6.46875L91.6306 6.72656L86.9992 15.9879Z" fill="#39439E"/>
<path d="M83.2985 23.3927L82.7822 23.1352L84.6325 19.4336L85.1488 19.691L83.2985 23.3927Z" fill="#39439E"/>
<path d="M78.6369 32.7143L78.1206 32.4571L80.929 26.8398L81.4453 27.097L78.6369 32.7143Z" fill="#39439E"/>
<path d="M76.0825 35.6159L75.8252 35.0996L77.2115 34.4062L77.327 34.6379L77.6154 34.7592L77.5723 34.846L77.4688 34.9226L76.0825 35.6159Z" fill="#39439E"/>
<path d="M57.4573 44.9277L57.1997 44.4111L73.8904 36.0664L74.1481 36.5831L57.4573 44.9277Z" fill="#39439E"/>
<path d="M32.5029 72.3845L31.9863 72.1268L42.0596 51.9802L51.6457 47.1875L51.903 47.7035L42.4898 52.41L32.5029 72.3845Z" fill="#39439E"/>
<path d="M83.1939 17.4014L82.6772 17.1439L86.3796 9.73828L86.8966 9.99575L83.1939 17.4014Z" fill="#39439E"/>
<path d="M81.3418 21.1036L80.8252 20.8465L81.7512 18.9961L82.2679 19.2535L81.3418 21.1036Z" fill="#39439E"/>
<path d="M76.6851 30.4199L76.1685 30.1621L78.0437 26.4102L78.5607 26.6677L76.6851 30.4199Z" fill="#39439E"/>
<path d="M57.4604 41.8262L57.2031 41.3099L62.7551 38.5332L63.0127 39.0499L57.4604 41.8262Z" fill="#39439E"/>
<path d="M51.9064 44.6024L51.6494 44.0861L55.3507 42.2344L55.608 42.751L51.9064 44.6024Z" fill="#39439E"/>
<path d="M30.5459 70.0974L30.0293 69.8405L39.9939 49.9142L47.9453 45.9375L48.2029 46.4542L40.4238 50.3444L30.5459 70.0974Z" fill="#39439E"/>
<path d="M80.3111 16.9658L79.7944 16.7086L80.7208 14.8574L81.2374 15.1146L80.3111 16.9658Z" fill="#39439E"/>
<path d="M77.5328 22.5229L77.0161 22.2659L78.8692 18.5605L79.3858 18.8177L77.5328 22.5229Z" fill="#39439E"/>
<path d="M70.4611 32.2253L70.2041 31.7084L72.991 30.315L75.1567 25.9844L75.6734 26.2418L73.4209 30.7453L70.4611 32.2253Z" fill="#39439E"/>
<path d="M48.2095 43.3494L47.9521 42.8327L60.9091 36.3555L61.1664 36.8718L48.2095 43.3494Z" fill="#39439E"/>
<path d="M27.661 69.6625L27.1445 69.4052L37.4222 48.8516L37.9382 49.1089L27.661 69.6625Z" fill="#39439E"/>
<path d="M77.4283 16.5298L76.9116 16.2723L78.7636 12.5684L79.2806 12.8255L77.4283 16.5298Z" fill="#39439E"/>
<path d="M74.6495 22.0904L74.1328 21.8329L75.9869 18.125L76.5039 18.3825L74.6495 22.0904Z" fill="#39439E"/>
<path d="M72.7803 25.8313L72.2637 25.5739L73.202 23.6953L73.7186 23.9527L72.7803 25.8313Z" fill="#39439E"/>
<path d="M61.1679 33.7711L60.9106 33.2546L70.9245 28.2474L71.2153 27.6641L71.732 27.9215L71.3544 28.6778L61.1679 33.7711Z" fill="#39439E"/>
<path d="M48.2099 40.2475L47.9526 39.7308L57.2073 35.1035L57.4642 35.6202L48.2099 40.2475Z" fill="#39439E"/>
<path d="M24.779 69.2276L24.2627 68.9703L33.5265 50.4453L34.0428 50.7026L24.779 69.2276Z" fill="#39439E"/>
<path d="M72.69 19.8024L72.1733 19.5449L73.1014 17.6895L73.6177 17.9465L72.69 19.8024Z" fill="#39439E"/>
<path d="M66.7793 27.8654L66.522 27.3491L68.8582 26.1808L69.3137 25.2695L69.83 25.5267L69.288 26.6108L66.7793 27.8654Z" fill="#39439E"/>
<path d="M57.47 32.5195L57.2124 32.0033L64.6362 28.291L64.8938 28.8079L57.47 32.5195Z" fill="#39439E"/>
<path d="M50.0667 36.2194L49.8091 35.7031L53.5107 33.8516L53.7677 34.3684L50.0667 36.2194Z" fill="#39439E"/>
<path d="M20.9673 70.6447L20.4507 70.387L30.6361 50.0176L31.1526 50.2749L20.9673 70.6447Z" fill="#39439E"/>
<path d="M53.77 31.2676L53.5127 30.751L66.7902 24.1118L69.2887 19.1152L69.805 19.3724L67.2204 24.5418L53.77 31.2676Z" fill="#39439E"/>
<path d="M15.2359 75.9075L14.7192 75.6502L27.7514 49.5859L28.268 49.8436L15.2359 75.9075Z" fill="#39439E"/>
<path d="M61.2011 24.4529L60.9438 23.936L64.7224 22.0475L65.4341 20.623L65.9511 20.8802L65.1526 22.4778L61.2011 24.4529Z" fill="#39439E"/>
<path d="M51.9222 29.0927L51.6646 28.576L59.0777 24.8691L59.3354 25.3853L51.9222 29.0927Z" fill="#39439E"/>
<path d="M2.86373 79.9169L2.60645 79.4003L12.1239 74.6424L24.8686 49.1543L25.3852 49.4116L12.5539 75.0723L2.86373 79.9169Z" fill="#39439E"/>
<path d="M8.54476 73.9759L8.2876 73.4592L10.0569 72.5746L21.9854 48.7188L22.5017 48.9761L10.4872 73.0048L8.54476 73.9759Z" fill="#39439E"/>
<path d="M4.77798 72.7589L4.52051 72.2422L7.99007 70.5067L19.1025 48.2832L19.6191 48.5405L8.4204 70.9366L4.77798 72.7589Z" fill="#39439E"/>
<path d="M0.681251 71.7065L0.423828 71.1899L5.92324 68.4406L16.2203 47.8477L16.7369 48.1046L6.35358 68.8708L0.681251 71.7065Z" fill="#39439E"/>
<path d="M6.438 62.4975L5.92139 62.2399L14.2608 45.5625L14.7777 45.8198L6.438 62.4975Z" fill="#39439E"/>
<path d="M3.02067 67.4376L2.76318 66.9209L3.8552 66.3752L4.97895 64.1289L5.49564 64.3862L4.28554 66.8058L3.02067 67.4376Z" fill="#39439E"/>
<path d="M2.26272 64.6507L1.74512 64.3941L10.4549 46.9766L10.9714 47.2335L2.26272 64.6507Z" fill="#39439E"/>
<path d="M3.49624 55.9805L2.97998 55.7232L5.76004 50.1641L6.27662 50.4214L3.49624 55.9805Z" fill="#39439E"/>
<path d="M0.516593 61.9405L0 61.6832L1.10934 59.4648L1.626 59.7221L0.516593 61.9405Z" fill="#39439E"/>
<path d="M201 45.5161C201 45.2311 201.231 45 201.516 45H209.5C213.642 45 217 48.3579 217 52.5C217 56.6421 213.642 60 209.5 60H201.516C201.231 60 201 59.7689 201 59.4839V45.5161Z" fill="#39439E"/>
<path d="M234 68.4839C234 68.2166 234.217 68 234.484 68H241.5C245.642 68 249 71.3579 249 75.5C249 79.6421 245.642 83 241.5 83H234.484C234.217 83 234 82.7834 234 82.5161V68.4839Z" fill="#39439E"/>
<path d="M224 78.5161C224 78.2311 224.231 78 224.516 78H232.5C236.642 78 240 81.3579 240 85.5C240 89.6421 236.642 93 232.5 93H224.516C224.231 93 224 92.7689 224 92.4839V78.5161Z" fill="#39439E"/>
</g>
<defs>
<clipPath id="clip0_254_5751">
<rect width="422" height="231.331" fill="white"/>
</clipPath>
</defs>
</svg>
