<svg width="608" height="236" viewBox="0 0 608 236" fill="none" xmlns="http://www.w3.org/2000/svg">
<path d="M0 194.819V151.103L100.166 7.91947H160.709V147.936H186.701V194.819H160.709V236H106.505V194.819H0ZM110.309 67.4738L57.0564 147.936H110.309V67.4738Z" fill="white"/>
<path d="M213.251 117.208C213.251 80.8841 220.224 52.2685 234.172 31.3611C248.33 10.4537 271.047 0 302.322 0C333.598 0 356.209 10.4537 370.156 31.3611C384.314 52.2685 391.394 80.8841 391.394 117.208C391.394 153.954 384.314 182.781 370.156 203.689C356.209 224.596 333.598 235.05 302.322 235.05C271.047 235.05 248.33 224.596 234.172 203.689C220.224 182.781 213.251 153.954 213.251 117.208ZM338.141 117.208C338.141 95.8783 335.816 79.5114 331.167 68.1074C326.518 56.4922 316.903 50.6846 302.322 50.6846C287.741 50.6846 278.126 56.4922 273.477 68.1074C268.828 79.5114 266.503 95.8783 266.503 117.208C266.503 131.569 267.349 143.501 269.039 153.004C270.73 162.296 274.111 169.899 279.183 175.812C284.466 181.514 292.179 184.365 302.322 184.365C312.466 184.365 320.073 181.514 325.145 175.812C330.428 169.899 333.915 162.296 335.605 153.004C337.296 143.501 338.141 131.569 338.141 117.208Z" fill="white"/>
<path d="M421.299 194.819V151.103L521.464 7.91947H582.008V147.936H608V194.819H582.008V236H527.804V194.819H421.299ZM531.608 67.4738L478.355 147.936H531.608V67.4738Z" fill="white"/>
</svg>
