<svg width="112" height="79" viewBox="0 0 112 79" fill="none" xmlns="http://www.w3.org/2000/svg">
<path d="M88.5285 29.4023C88.3022 26.9655 88.4753 20.3412 94.8459 11.1296C95.3278 10.4345 95.2404 9.497 94.6419 8.90104C92.0446 6.31381 90.4365 4.68121 89.3086 3.53877C87.8255 2.03242 87.1484 1.34605 86.1574 0.451057C85.4958 -0.14141 84.4946 -0.151727 83.8259 0.429023C72.7219 10.0538 60.3886 29.942 62.1733 54.3079C63.2191 68.6152 73.6957 79 87.0833 79C100.822 79 112 67.8673 112 54.1815C112 40.979 101.597 30.152 88.5285 29.4023ZM87.0833 75.5026C75.5865 75.5026 66.5844 66.4823 65.6741 54.0552C63.6665 26.6512 80.02 8.8498 84.9609 4.13648C85.4426 4.60951 85.9929 5.16613 86.8038 5.98925C87.781 6.97972 89.1183 8.33568 91.1412 10.3577C83.4076 22.2265 84.8666 30.6831 85.506 31.8956C85.8095 32.4711 86.4318 32.8588 87.0833 32.8588C98.8868 32.8588 108.489 42.4238 108.489 54.1815C108.489 65.9376 98.8868 75.5026 87.0833 75.5026Z" fill="#39439E"/>
<path d="M26.5289 29.402C26.3008 26.972 26.4688 20.3527 32.8457 11.1292C33.3258 10.4341 33.24 9.49662 32.6417 8.90065C30.0498 6.31848 28.4436 4.68762 27.3174 3.54517C25.8295 2.03549 25.1505 1.3472 24.1598 0.450622C23.4981 -0.141847 22.497 -0.150416 21.8285 0.426839C10.7255 10.0517 -1.60838 29.9366 0.172608 54.3078C1.22179 68.6134 11.699 79 25.0854 79C38.8232 79 50 67.8672 50 54.1814C50 40.9772 39.5981 30.1484 26.5289 29.402ZM25.0854 75.5025C13.5917 75.5025 4.58507 66.4823 3.67315 54.0533C1.67099 26.6424 18.0229 8.84767 22.9632 4.13607C23.4466 4.6091 23.9987 5.16922 24.8112 5.99409C25.7865 6.98457 27.122 8.33879 29.1414 10.3573C21.4085 22.2279 22.8673 30.6828 23.5067 31.8936C23.8102 32.4691 24.434 32.8586 25.0854 32.8586C36.888 32.8586 46.4893 42.4236 46.4893 54.1814C46.4893 65.9375 36.888 75.5025 25.0854 75.5025Z" fill="#39439E"/>
</svg>
