<svg width="218" height="45" viewBox="0 0 218 45" fill="none" xmlns="http://www.w3.org/2000/svg">
<g id="&#208;&#145;&#208;&#181;&#208;&#183;&#209;&#139;&#208;&#188;&#209;&#143;&#208;&#189;&#208;&#189;&#209;&#139;&#208;&#185;-177777 1" clip-path="url(#clip0_4001_4)">
<g id="&#208;&#161;&#208;&#187;&#208;&#190;&#208;&#185;_x0020_1">
<g id="_2504919280256">
<path id="Vector" d="M52.0706 14.3349C52.0706 18.996 32.6268 21.2568 18.6786 18.5435C14.8526 17.8479 1.18264 14.7522 0 14.474V6.58404C1.18264 6.86236 14.8527 9.95812 18.6786 10.6538C32.6268 13.3667 52.0706 11.106 52.0706 6.44489V14.3348V14.3349Z" fill="white"/>
<path id="Vector_2" d="M52.0706 26.6936C52.0706 31.3547 32.6268 33.6154 18.6786 30.9024C14.8526 30.2067 1.18264 27.1112 0 26.8329V18.943C1.18264 19.2213 14.8527 22.3169 18.6786 23.0125C32.6268 25.7257 52.0706 23.4647 52.0706 18.8038V26.6936Z" fill="white"/>
<path id="Vector_3" d="M52.0706 39.0525C52.0706 43.7132 32.6268 45.9743 18.6786 43.2615C14.8526 42.5657 1.18264 39.4698 0 39.1912V31.3017C1.18264 31.58 14.8527 34.6756 18.6786 35.3712C32.6268 38.0844 52.0706 35.8236 52.0706 31.1624V39.0525Z" fill="white"/>
<path id="Vector_4" d="M12.3184 3.96046C15.3082 4.57282 18.897 5.31442 22.8137 5.95044C35.8794 8.20832 54.4527 3.77802 28.3469 1.52588e-05L12.3184 3.96046Z" fill="white"/>
<path id="Vector_5" d="M73.6198 32.8863H78.1072C79.5772 32.8863 80.8154 32.6616 81.8211 32.2096C82.8266 31.7588 83.5811 30.9335 84.0838 29.7337C84.5865 28.5351 84.8381 26.8129 84.8381 24.57C84.8381 22.3259 84.6059 20.6112 84.1419 19.425C83.6774 18.2389 82.9551 17.4267 81.9756 16.9878C80.9951 16.5498 79.7062 16.3302 78.1071 16.3302H73.6197V32.8862L73.6198 32.8863ZM68.3979 36.9099V11.9977H78.8421C82.5811 11.9977 85.3988 12.9585 87.2948 14.8797C89.1897 16.8007 90.1376 20.0314 90.1376 24.5701C90.1376 28.8511 89.2029 31.9777 87.3333 33.9506C85.4631 35.923 82.6331 36.9099 78.8421 36.9099H68.3979Z" fill="white"/>
<path id="Vector_6" d="M100.505 33.8534C101.664 33.8534 102.67 33.6601 103.521 33.2738C104.373 32.8863 105.043 32.3969 105.533 31.8036V28.9025H100.233C98.196 28.9025 97.1776 29.7405 97.1776 31.417C97.1776 33.0417 98.2864 33.8533 100.505 33.8533V33.8534ZM99.0729 37.2962C97.9126 37.2962 96.8352 37.0838 95.8428 36.6582C94.8496 36.2332 94.0501 35.6007 93.4442 34.7629C92.8383 33.9255 92.5352 32.8742 92.5352 31.6103C92.5352 29.8051 93.1737 28.3606 94.4502 27.2776C95.7269 26.1948 97.6159 25.6531 100.118 25.6531H105.533V25.1496C105.533 24.0152 105.217 23.2158 104.585 22.7513C103.953 22.2876 102.683 22.0558 100.775 22.0558C98.6858 22.0558 96.6742 22.3776 94.7401 23.0226V19.3478C95.5911 19.013 96.6289 18.7356 97.8543 18.5156C99.0785 18.2968 100.414 18.1868 101.858 18.1868C104.617 18.1868 106.751 18.7476 108.26 19.8702C109.769 20.9917 110.523 22.7897 110.523 25.2665V36.91H105.997L105.726 35.2464C105.004 35.8913 104.114 36.3944 103.057 36.7554C101.999 37.1159 100.672 37.2963 99.0728 37.2963L99.0729 37.2962Z" fill="white"/>
<path id="Vector_7" d="M121.814 37.2962C119.699 37.2962 118.132 36.7422 117.114 35.6334C116.095 34.525 115.586 33.016 115.586 31.1069V23.0905H112.995V19.068H115.586V13.4078L120.808 11.9941V19.0679H125.296V23.0904H120.808V30.7589C120.808 31.7646 121.04 32.4552 121.506 32.8285C121.969 33.2023 122.69 33.3892 123.671 33.3892C124.393 33.3892 125.141 33.2608 125.914 33.0021V36.6003C125.347 36.8323 124.727 37.0063 124.057 37.1223C123.386 37.2383 122.639 37.296 121.814 37.296V37.2962Z" fill="white"/>
<path id="Vector_8" d="M136.112 33.8534C137.271 33.8534 138.277 33.6601 139.128 33.2738C139.979 32.8863 140.65 32.3969 141.141 31.8036V28.9025H135.841C133.803 28.9025 132.785 29.7405 132.785 31.417C132.785 33.0417 133.893 33.8533 136.112 33.8533V33.8534ZM134.68 37.2962C133.52 37.2962 132.443 37.0838 131.45 36.6582C130.457 36.2332 129.657 35.6007 129.052 34.7629C128.445 33.9255 128.143 32.8742 128.143 31.6103C128.143 29.8051 128.781 28.3606 130.057 27.2776C131.334 26.1948 133.223 25.6531 135.724 25.6531H141.14V25.1496C141.14 24.0152 140.824 23.2158 140.192 22.7513C139.56 22.2876 138.29 22.0558 136.382 22.0558C134.293 22.0558 132.281 22.3776 130.347 23.0226V19.3478C131.199 19.013 132.236 18.7356 133.461 18.5156C134.686 18.2968 136.02 18.1868 137.465 18.1868C140.224 18.1868 142.359 18.7476 143.867 19.8702C145.376 20.9917 146.13 22.7897 146.13 25.2665V36.91H141.604L141.334 35.2464C140.612 35.8913 139.722 36.3944 138.664 36.7554C137.607 37.1159 136.279 37.2963 134.68 37.2963L134.68 37.2962Z" fill="white"/>
<path id="Vector_9" d="M157.134 37.2962C155.714 37.2995 154.433 37.1207 153.21 36.9119C151.975 36.7009 150.997 36.3609 150.248 36.0769V32.4683C151.151 32.83 152.169 32.9391 153.305 33.1324C154.439 33.3255 155.484 33.4225 156.437 33.4225C157.727 33.4225 158.488 33.2436 159.076 32.967C159.574 32.7325 159.958 32.3454 159.958 31.8037C159.958 31.1843 159.552 30.7333 158.739 30.4502C157.927 30.1659 156.721 29.7665 155.123 29.2503C153.446 28.6836 152.157 28 151.254 27.2005C150.352 26.4012 149.9 25.2151 149.9 23.6408C149.9 21.8883 150.538 20.5408 151.815 19.5988C153.092 18.6574 155.148 18.1869 157.985 18.1869C159.119 18.1869 160.002 18.2634 161.005 18.4439C162.016 18.6261 163.053 18.9691 163.749 19.201V22.8723C163.053 22.5375 162.149 22.2903 161.366 22.1479C160.417 21.9754 159.61 21.9178 158.836 21.9178C157.726 21.9178 156.844 21.995 156.186 22.1497C155.529 22.3041 155.128 22.8165 155.128 23.3319C155.128 23.8993 155.553 24.5308 156.263 24.7634C156.972 24.995 158.075 25.3439 159.571 25.8076C161.04 26.2465 162.187 26.723 163.014 27.2391C163.838 27.7553 164.419 28.3677 164.755 29.0761C165.09 29.7862 165.257 30.6691 165.257 31.7264C165.257 35.4397 162.549 37.2837 157.134 37.2963L157.134 37.2962Z" fill="white"/>
<path id="Vector_10" d="M168.269 36.8857H173.491V11.9977H168.269V36.8857Z" fill="white"/>
<path id="Vector_11" d="M184.601 33.8534C185.762 33.8534 186.767 33.6601 187.619 33.2738C188.469 32.8863 189.14 32.3969 189.631 31.8036V28.9025H184.331C182.293 28.9025 181.275 29.7405 181.275 31.417C181.275 33.0417 182.383 33.8533 184.601 33.8533V33.8534ZM183.17 37.2962C182.01 37.2962 180.933 37.0838 179.94 36.6582C178.947 36.2332 178.147 35.6007 177.541 34.7629C176.935 33.9255 176.633 32.8742 176.633 31.6103C176.633 29.8051 177.271 28.3606 178.547 27.2776C179.824 26.1948 181.712 25.6531 184.214 25.6531H189.631V25.1496C189.631 24.0152 189.314 23.2158 188.682 22.7513C188.05 22.2876 186.78 22.0558 184.872 22.0558C182.783 22.0558 180.771 22.3776 178.837 23.0226V19.3478C179.688 19.013 180.727 18.7356 181.951 18.5156C183.176 18.2968 184.511 18.1868 185.955 18.1868C188.714 18.1868 190.849 18.7476 192.357 19.8702C193.866 20.9917 194.62 22.7897 194.62 25.2665V36.91H190.094L189.824 35.2464C189.101 35.8913 188.212 36.3944 187.155 36.7554C186.096 37.1159 184.769 37.2963 183.17 37.2963V37.2962Z" fill="white"/>
<path id="Vector_12" d="M208.135 33.4666C209.811 33.4666 210.991 32.9774 211.675 31.9964C212.357 31.0168 212.7 29.5474 212.7 27.5868C212.7 25.5498 212.333 24.1123 211.597 23.2739C210.862 22.4358 209.695 22.0169 208.096 22.0169C207.297 22.0169 206.543 22.1327 205.833 22.3645C205.124 22.5964 204.524 22.9322 204.035 23.3703V31.8035C204.55 32.3452 205.163 32.7574 205.872 33.0417C206.581 33.3253 207.335 33.4665 208.135 33.4665L208.135 33.4666ZM209.605 37.2961C208.315 37.2961 207.194 37.1224 206.24 36.7741C205.286 36.4261 204.409 35.904 203.609 35.2074L203.339 36.9098H198.813V11.9977H204.035V19.5797C204.782 19.1152 205.621 18.7674 206.549 18.5356C207.478 18.3026 208.445 18.1867 209.45 18.1867C212.081 18.1867 214.163 18.9287 215.698 20.411C217.233 21.8941 218 24.2856 218 27.5868C218 30.8887 217.245 33.3312 215.737 34.9172C214.228 36.5034 212.183 37.2961 209.605 37.2961H209.605Z" fill="white"/>
</g>
</g>
</g>
<defs>
<clipPath id="clip0_4001_4">
<rect width="218" height="44.4299" fill="white"/>
</clipPath>
</defs>
</svg>
