<svg width="0" height="0" class="hidden">
  <symbol fill="none" xmlns="http://www.w3.org/2000/svg" viewBox="0 0 12 9" id="ic_arr_ver">
    <line x1="5.24724" y1="7.33845" x2="11.2928" y2="1.29289" stroke="currentColor" stroke-width="2"></line>
    <line y1="-1" x2="8.54971" y2="-1" transform="matrix(-0.707107 -0.707107 -0.707107 0.707107 6.04565 8.07594)" stroke="currentColor" stroke-width="2"></line>
  </symbol>
  <symbol fill="none" xmlns="http://www.w3.org/2000/svg" viewBox="0 0 52 52" id="ic_fb">
    <path d="M51 26C51 39.8071 39.8071 51 26 51C12.1929 51 1 39.8071 1 26C1 12.1929 12.1929 1 26 1C39.8071 1 51 12.1929 51 26Z" stroke="currentColor" stroke-width="2"></path>
    <path d="M27.3662 27.9692V36.5882H23.4069V27.9692H20.1176V24.4744H23.4069V23.2028C23.4069 18.4822 25.3789 16 29.5514 16C30.8305 16 31.1503 16.2056 31.8508 16.3731V19.8298C31.0666 19.6928 30.8458 19.6166 30.0311 19.6166C29.0641 19.6166 28.5463 19.8907 28.0743 20.4313C27.6022 20.9719 27.3662 21.9085 27.3662 23.2485V24.482H31.8508L30.6478 27.9768H27.3662V27.9692Z" stroke="currentColor" stroke-width="2"></path>
  </symbol>
  <symbol fill="none" xmlns="http://www.w3.org/2000/svg" viewBox="0 0 107 16" id="ic_arrow_hor">
    <path d="M106.707 8.70711C107.098 8.31658 107.098 7.68342 106.707 7.29289L100.343 0.928932C99.9526 0.538408 99.3195 0.538408 98.9289 0.928932C98.5384 1.31946 98.5384 1.95262 98.9289 2.34315L104.586 8L98.9289 13.6569C98.5384 14.0474 98.5384 14.6805 98.9289 15.0711C99.3195 15.4616 99.9526 15.4616 100.343 15.0711L106.707 8.70711ZM0 9H106V7H0V9Z" fill="currentColor"></path>
  </symbol>
  <symbol fill="none" xmlns="http://www.w3.org/2000/svg" viewBox="0 0 51 52" id="ic_linkedin">
    <path d="M50 26C50 39.8071 39.031 51 25.5 51C11.969 51 1 39.8071 1 26C1 12.1929 11.969 1 25.5 1C39.031 1 50 12.1929 50 26Z" stroke="currentColor" stroke-width="2"></path>
    <path d="M19.9678 22.7702H15.7518V36.4891H19.9678V22.7702Z" stroke="currentColor" stroke-width="2"></path>
    <path d="M31.3723 22.4728C31.2169 22.453 31.0517 22.4431 30.8866 22.4332C28.526 22.3341 27.1952 23.7615 26.7289 24.376C26.6026 24.5446 26.5443 24.6437 26.5443 24.6437V22.8099H22.5129V36.5288H26.7289C26.7289 35.1311 26.7289 33.7434 26.7289 32.3457C26.7289 31.5923 26.7289 30.839 26.7289 30.0856C26.7289 29.1539 26.6609 28.1626 27.1175 27.3101C27.506 26.5964 28.2054 26.2396 28.9923 26.2396C31.3237 26.2396 31.3723 28.3906 31.3723 28.5889C31.3723 28.5988 31.3723 28.6087 31.3723 28.6087V36.5882H35.5883V27.6373C35.5883 24.5743 34.0631 22.7702 31.3723 22.4728Z" stroke="currentColor" stroke-width="2"></path>
    <path d="M17.8598 20.9959C19.2117 20.9959 20.3077 19.8775 20.3077 18.4979C20.3077 17.1184 19.2117 16 17.8598 16C16.5078 16 15.4118 17.1184 15.4118 18.4979C15.4118 19.8775 16.5078 20.9959 17.8598 20.9959Z" stroke="currentColor" stroke-width="2"></path>
  </symbol>
  <symbol fill="none" xmlns="http://www.w3.org/2000/svg" viewBox="0 0 52 52" id="ic_youtube">
    <path d="M51 26C51 39.8071 39.8071 51 26 51C12.1929 51 1 39.8071 1 26C1 12.1929 12.1929 1 26 1C39.8071 1 51 12.1929 51 26Z" stroke="currentColor" stroke-width="2"></path>
    <path d="M35.2654 35.1176H17.6169C15.2555 35.1176 13.3529 33.0292 13.3529 30.4605V22.1277C13.3529 19.5486 15.265 17.4706 17.6169 17.4706H35.2654C37.6268 17.4706 39.5294 19.559 39.5294 22.1277V30.4605C39.5389 33.0397 37.6268 35.1176 35.2654 35.1176Z" stroke="currentColor" stroke-width="2"></path>
    <path d="M31.0713 26.1636L23.6471 21.8824V30.4448L31.0713 26.1636Z" stroke="currentColor" stroke-width="2"></path>
  </symbol>
</svg>